# Blender 5.0.1
# www.blender.org
o Cube
v 3.276759 1.000000 -1.000000
v 3.276759 -1.000000 -1.000000
v 3.276759 1.000000 1.000000
v 3.276759 -1.000000 1.000000
v -3.276759 1.000000 -1.000000
v -3.276759 -1.000000 -1.000000
v -3.276759 1.000000 1.000000
v -3.276759 -1.000000 1.000000
v -3.276759 -1.000000 -0.818182
v -3.276759 -1.000000 -0.636364
v -3.276759 -1.000000 -0.454545
v -3.276759 -1.000000 -0.272727
v -3.276759 -1.000000 -0.090909
v -3.276759 -1.000000 0.090909
v -3.276759 -1.000000 0.272727
v -3.276759 -1.000000 0.454545
v -3.276759 -1.000000 0.636364
v -3.276759 -1.000000 0.818182
v 2.680984 -1.000000 -1.000000
v 2.085210 -1.000000 -1.000000
v 1.489436 -1.000000 -1.000000
v 0.893661 -1.000000 -1.000000
v 0.297887 -1.000000 -1.000000
v -0.297887 -1.000000 -1.000000
v -0.893662 -1.000000 -1.000000
v -1.489436 -1.000000 -1.000000
v -2.085210 -1.000000 -1.000000
v -2.680984 -1.000000 -1.000000
v 3.276759 0.818182 -1.000000
v 3.276759 0.636364 -1.000000
v 3.276759 0.454545 -1.000000
v 3.276759 0.272727 -1.000000
v 3.276759 0.090909 -1.000000
v 3.276759 -0.090909 -1.000000
v 3.276759 -0.272727 -1.000000
v 3.276759 -0.454545 -1.000000
v 3.276759 -0.636364 -1.000000
v 3.276759 -0.818182 -1.000000
v -3.276759 -0.818182 1.000000
v -3.276759 -0.636364 1.000000
v -3.276759 -0.454545 1.000000
v -3.276759 -0.272727 1.000000
v -3.276759 -0.090909 1.000000
v -3.276759 0.090909 1.000000
v -3.276759 0.272727 1.000000
v -3.276759 0.454545 1.000000
v -3.276759 0.636364 1.000000
v -3.276759 0.818182 1.000000
v 3.276759 0.818182 1.000000
v 3.276759 0.636364 1.000000
v 3.276759 0.454545 1.000000
v 3.276759 0.272727 1.000000
v 3.276759 0.090909 1.000000
v 3.276759 -0.090909 1.000000
v 3.276759 -0.272727 1.000000
v 3.276759 -0.454545 1.000000
v 3.276759 -0.636364 1.000000
v 3.276759 -0.818182 1.000000
v -3.276759 0.818182 -1.000000
v -3.276759 0.636364 -1.000000
v -3.276759 0.454545 -1.000000
v -3.276759 0.272727 -1.000000
v -3.276759 0.090909 -1.000000
v -3.276759 -0.090909 -1.000000
v -3.276759 -0.272727 -1.000000
v -3.276759 -0.454545 -1.000000
v -3.276759 -0.636364 -1.000000
v -3.276759 -0.818182 -1.000000
v 2.680984 1.000000 1.000000
v 2.085210 1.000000 1.000000
v 1.489436 1.000000 1.000000
v 0.893661 1.000000 1.000000
v 0.297887 1.000000 1.000000
v -0.297887 1.000000 1.000000
v -0.893662 1.000000 1.000000
v -1.489436 1.000000 1.000000
v -2.085210 1.000000 1.000000
v -2.680984 1.000000 1.000000
v 3.276759 1.000000 -0.818182
v 3.276759 1.000000 -0.636364
v 3.276759 1.000000 -0.454545
v 3.276759 1.000000 -0.272727
v 3.276759 1.000000 -0.090909
v 3.276759 1.000000 0.090909
v 3.276759 1.000000 0.272727
v 3.276759 1.000000 0.454545
v 3.276759 1.000000 0.636364
v 3.276759 1.000000 0.818182
v -2.680984 -1.000000 1.000000
v -2.085210 -1.000000 1.000000
v -1.489436 -1.000000 1.000000
v -0.893661 -1.000000 1.000000
v -0.297887 -1.000000 1.000000
v 0.297887 -1.000000 1.000000
v 0.893662 -1.000000 1.000000
v 1.489436 -1.000000 1.000000
v 2.085210 -1.000000 1.000000
v 2.680984 -1.000000 1.000000
v -3.276759 1.000000 0.818182
v -3.276759 1.000000 0.636364
v -3.276759 1.000000 0.454545
v -3.276759 1.000000 0.272727
v -3.276759 1.000000 0.090909
v -3.276759 1.000000 -0.090909
v -3.276759 1.000000 -0.272727
v -3.276759 1.000000 -0.454545
v -3.276759 1.000000 -0.636364
v -3.276759 1.000000 -0.818182
v -2.680984 1.000000 -1.000000
v -2.085210 1.000000 -1.000000
v -1.489436 1.000000 -1.000000
v -0.893661 1.000000 -1.000000
v -0.297887 1.000000 -1.000000
v 0.297887 1.000000 -1.000000
v 0.893662 1.000000 -1.000000
v 1.489436 1.000000 -1.000000
v 2.085210 1.000000 -1.000000
v 2.680984 1.000000 -1.000000
v 3.276759 -1.000000 0.818182
v 3.276759 -1.000000 0.636364
v 3.276759 -1.000000 0.454545
v 3.276759 -1.000000 0.272727
v 3.276759 -1.000000 0.090909
v 3.276759 -1.000000 -0.090909
v 3.276759 -1.000000 -0.272727
v 3.276759 -1.000000 -0.454545
v 3.276759 -1.000000 -0.636364
v 3.276759 -1.000000 -0.818182
v -2.680984 -0.818182 -1.000000
v -2.085210 -0.818182 -1.000000
v -1.489436 -0.818182 -1.000000
v -0.893661 -0.818182 -1.000000
v -0.297887 -0.818182 -1.000000
v 0.297887 -0.818182 -1.000000
v 0.893662 -0.818182 -1.000000
v 1.489436 -0.818182 -1.000000
v 2.085210 -0.818182 -1.000000
v 2.680984 -0.818182 -1.000000
v -2.680984 -0.636364 -1.000000
v -2.085210 -0.636364 -1.000000
v -1.489436 -0.636364 -1.000000
v -0.893661 -0.636364 -1.000000
v -0.297887 -0.636364 -1.000000
v 0.297887 -0.636364 -1.000000
v 0.893662 -0.636364 -1.000000
v 1.489436 -0.636364 -1.000000
v 2.085210 -0.636364 -1.000000
v 2.680984 -0.636364 -1.000000
v -2.680984 -0.454545 -1.000000
v -2.085210 -0.454545 -1.000000
v -1.489436 -0.454545 -1.000000
v -0.893661 -0.454545 -1.000000
v -0.297887 -0.454545 -1.000000
v 0.297887 -0.454545 -1.000000
v 0.893662 -0.454545 -1.000000
v 1.489436 -0.454545 -1.000000
v 2.085210 -0.454545 -1.000000
v 2.680984 -0.454545 -1.000000
v -2.680984 -0.272727 -1.000000
v -2.085210 -0.272727 -1.000000
v -1.489436 -0.272727 -1.000000
v -0.893661 -0.272727 -1.000000
v -0.297887 -0.272727 -1.000000
v 0.297887 -0.272727 -1.000000
v 0.893662 -0.272727 -1.000000
v 1.489436 -0.272727 -1.000000
v 2.085210 -0.272727 -1.000000
v 2.680984 -0.272727 -1.000000
v -2.680984 -0.090909 -1.000000
v -2.085210 -0.090909 -1.000000
v -1.489436 -0.090909 -1.000000
v -0.893661 -0.090909 -1.000000
v -0.297887 -0.090909 -1.000000
v 0.297887 -0.090909 -1.000000
v 0.893662 -0.090909 -1.000000
v 1.489436 -0.090909 -1.000000
v 2.085210 -0.090909 -1.000000
v 2.680984 -0.090909 -1.000000
v -2.680984 0.090909 -1.000000
v -2.085210 0.090909 -1.000000
v -1.489436 0.090909 -1.000000
v -0.893661 0.090909 -1.000000
v -0.297887 0.090909 -1.000000
v 0.297887 0.090909 -1.000000
v 0.893662 0.090909 -1.000000
v 1.489436 0.090909 -1.000000
v 2.085210 0.090909 -1.000000
v 2.680984 0.090909 -1.000000
v -2.680984 0.272727 -1.000000
v -2.085210 0.272727 -1.000000
v -1.489436 0.272727 -1.000000
v -0.893661 0.272727 -1.000000
v -0.297887 0.272727 -1.000000
v 0.297887 0.272727 -1.000000
v 0.893662 0.272727 -1.000000
v 1.489436 0.272727 -1.000000
v 2.085210 0.272727 -1.000000
v 2.680984 0.272727 -1.000000
v -2.680984 0.454545 -1.000000
v -2.085210 0.454545 -1.000000
v -1.489436 0.454545 -1.000000
v -0.893661 0.454545 -1.000000
v -0.297887 0.454545 -1.000000
v 0.297887 0.454545 -1.000000
v 0.893662 0.454545 -1.000000
v 1.489436 0.454545 -1.000000
v 2.085210 0.454545 -1.000000
v 2.680984 0.454545 -1.000000
v -2.680984 0.636364 -1.000000
v -2.085210 0.636364 -1.000000
v -1.489436 0.636364 -1.000000
v -0.893661 0.636364 -1.000000
v -0.297887 0.636364 -1.000000
v 0.297887 0.636364 -1.000000
v 0.893662 0.636364 -1.000000
v 1.489436 0.636364 -1.000000
v 2.085210 0.636364 -1.000000
v 2.680984 0.636364 -1.000000
v -2.680984 0.818182 -1.000000
v -2.085210 0.818182 -1.000000
v -1.489436 0.818182 -1.000000
v -0.893661 0.818182 -1.000000
v -0.297887 0.818182 -1.000000
v 0.297887 0.818182 -1.000000
v 0.893662 0.818182 -1.000000
v 1.489436 0.818182 -1.000000
v 2.085210 0.818182 -1.000000
v 2.680984 0.818182 -1.000000
v 3.276759 -0.818182 -0.818182
v 3.276759 -0.818182 -0.636364
v 3.276759 -0.818182 -0.454545
v 3.276759 -0.818182 -0.272727
v 3.276759 -0.818182 -0.090909
v 3.276759 -0.818182 0.090909
v 3.276759 -0.818182 0.272727
v 3.276759 -0.818182 0.454545
v 3.276759 -0.818182 0.636364
v 3.276759 -0.818182 0.818182
v 3.276759 -0.636364 -0.818182
v 3.276759 -0.636364 -0.636364
v 3.276759 -0.636364 -0.454545
v 3.276759 -0.636364 -0.272727
v 3.276759 -0.636364 -0.090909
v 3.276759 -0.636364 0.090909
v 3.276759 -0.636364 0.272727
v 3.276759 -0.636364 0.454545
v 3.276759 -0.636364 0.636364
v 3.276759 -0.636364 0.818182
v 3.276759 -0.454545 -0.818182
v 3.276759 -0.454545 -0.636364
v 3.276759 -0.454545 -0.454545
v 3.276759 -0.454545 -0.272727
v 3.276759 -0.454545 -0.090909
v 3.276759 -0.454545 0.090909
v 3.276759 -0.454545 0.272727
v 3.276759 -0.454545 0.454545
v 3.276759 -0.454545 0.636364
v 3.276759 -0.454545 0.818182
v 3.276759 -0.272727 -0.818182
v 3.276759 -0.272727 -0.636364
v 3.276759 -0.272727 -0.454545
v 3.276759 -0.272727 -0.272727
v 3.276759 -0.272727 -0.090909
v 3.276759 -0.272727 0.090909
v 3.276759 -0.272727 0.272727
v 3.276759 -0.272727 0.454545
v 3.276759 -0.272727 0.636364
v 3.276759 -0.272727 0.818182
v 3.276759 -0.090909 -0.818182
v 3.276759 -0.090909 -0.636364
v 3.276759 -0.090909 -0.454545
v 3.276759 -0.090909 -0.272727
v 3.276759 -0.090909 -0.090909
v 3.276759 -0.090909 0.090909
v 3.276759 -0.090909 0.272727
v 3.276759 -0.090909 0.454545
v 3.276759 -0.090909 0.636364
v 3.276759 -0.090909 0.818182
v 3.276759 0.090909 -0.818182
v 3.276759 0.090909 -0.636364
v 3.276759 0.090909 -0.454545
v 3.276759 0.090909 -0.272727
v 3.276759 0.090909 -0.090909
v 3.276759 0.090909 0.090909
v 3.276759 0.090909 0.272727
v 3.276759 0.090909 0.454545
v 3.276759 0.090909 0.636364
v 3.276759 0.090909 0.818182
v 3.276759 0.272727 -0.818182
v 3.276759 0.272727 -0.636364
v 3.276759 0.272727 -0.454545
v 3.276759 0.272727 -0.272727
v 3.276759 0.272727 -0.090909
v 3.276759 0.272727 0.090909
v 3.276759 0.272727 0.272727
v 3.276759 0.272727 0.454545
v 3.276759 0.272727 0.636364
v 3.276759 0.272727 0.818182
v 3.276759 0.454545 -0.818182
v 3.276759 0.454545 -0.636364
v 3.276759 0.454545 -0.454545
v 3.276759 0.454545 -0.272727
v 3.276759 0.454545 -0.090909
v 3.276759 0.454545 0.090909
v 3.276759 0.454545 0.272727
v 3.276759 0.454545 0.454545
v 3.276759 0.454545 0.636364
v 3.276759 0.454545 0.818182
v 3.276759 0.636364 -0.818182
v 3.276759 0.636364 -0.636364
v 3.276759 0.636364 -0.454545
v 3.276759 0.636364 -0.272727
v 3.276759 0.636364 -0.090909
v 3.276759 0.636364 0.090909
v 3.276759 0.636364 0.272727
v 3.276759 0.636364 0.454545
v 3.276759 0.636364 0.636364
v 3.276759 0.636364 0.818182
v 3.276759 0.818182 -0.818182
v 3.276759 0.818182 -0.636364
v 3.276759 0.818182 -0.454545
v 3.276759 0.818182 -0.272727
v 3.276759 0.818182 -0.090909
v 3.276759 0.818182 0.090909
v 3.276759 0.818182 0.272727
v 3.276759 0.818182 0.454545
v 3.276759 0.818182 0.636364
v 3.276759 0.818182 0.818182
v -2.680984 -1.000000 -0.818182
v -2.680984 -1.000000 -0.636364
v -2.680984 -1.000000 -0.454545
v -2.680984 -1.000000 -0.272727
v -2.680984 -1.000000 -0.090909
v -2.680984 -1.000000 0.090909
v -2.680984 -1.000000 0.272727
v -2.680984 -1.000000 0.454545
v -2.680984 -1.000000 0.636364
v -2.680984 -1.000000 0.818182
v -2.085210 -1.000000 -0.818182
v -2.085210 -1.000000 -0.636364
v -2.085210 -1.000000 -0.454545
v -2.085210 -1.000000 -0.272727
v -2.085210 -1.000000 -0.090909
v -2.085210 -1.000000 0.090909
v -2.085210 -1.000000 0.272727
v -2.085210 -1.000000 0.454545
v -2.085210 -1.000000 0.636364
v -2.085210 -1.000000 0.818182
v -1.489436 -1.000000 -0.818182
v -1.489436 -1.000000 -0.636364
v -1.489436 -1.000000 -0.454545
v -1.489436 -1.000000 -0.272727
v -1.489436 -1.000000 -0.090909
v -1.489436 -1.000000 0.090909
v -1.489436 -1.000000 0.272727
v -1.489436 -1.000000 0.454545
v -1.489436 -1.000000 0.636364
v -1.489436 -1.000000 0.818182
v -0.893662 -1.000000 -0.818182
v -0.893662 -1.000000 -0.636364
v -0.893662 -1.000000 -0.454545
v -0.893662 -1.000000 -0.272727
v -0.893662 -1.000000 -0.090909
v -0.893661 -1.000000 0.090909
v -0.893661 -1.000000 0.272727
v -0.893661 -1.000000 0.454545
v -0.893661 -1.000000 0.636364
v -0.893661 -1.000000 0.818182
v -0.297887 -1.000000 -0.818182
v -0.297887 -1.000000 -0.636364
v -0.297887 -1.000000 -0.454545
v -0.297887 -1.000000 -0.272727
v -0.297887 -1.000000 -0.090909
v -0.297887 -1.000000 0.090909
v -0.297887 -1.000000 0.272727
v -0.297887 -1.000000 0.454545
v -0.297887 -1.000000 0.636364
v -0.297887 -1.000000 0.818182
v 0.297887 -1.000000 -0.818182
v 0.297887 -1.000000 -0.636364
v 0.297887 -1.000000 -0.454545
v 0.297887 -1.000000 -0.272727
v 0.297887 -1.000000 -0.090909
v 0.297887 -1.000000 0.090909
v 0.297887 -1.000000 0.272727
v 0.297887 -1.000000 0.454545
v 0.297887 -1.000000 0.636364
v 0.297887 -1.000000 0.818182
v 0.893661 -1.000000 -0.818182
v 0.893661 -1.000000 -0.636364
v 0.893661 -1.000000 -0.454545
v 0.893661 -1.000000 -0.272727
v 0.893661 -1.000000 -0.090909
v 0.893661 -1.000000 0.090909
v 0.893662 -1.000000 0.272727
v 0.893662 -1.000000 0.454545
v 0.893662 -1.000000 0.636364
v 0.893662 -1.000000 0.818182
v 1.489436 -1.000000 -0.818182
v 1.489436 -1.000000 -0.636364
v 1.489436 -1.000000 -0.454545
v 1.489436 -1.000000 -0.272727
v 1.489436 -1.000000 -0.090909
v 1.489436 -1.000000 0.090909
v 1.489436 -1.000000 0.272727
v 1.489436 -1.000000 0.454545
v 1.489436 -1.000000 0.636364
v 1.489436 -1.000000 0.818182
v 2.085210 -1.000000 -0.818182
v 2.085210 -1.000000 -0.636364
v 2.085210 -1.000000 -0.454545
v 2.085210 -1.000000 -0.272727
v 2.085210 -1.000000 -0.090909
v 2.085210 -1.000000 0.090909
v 2.085210 -1.000000 0.272727
v 2.085210 -1.000000 0.454545
v 2.085210 -1.000000 0.636364
v 2.085210 -1.000000 0.818182
v 2.680984 -1.000000 -0.818182
v 2.680984 -1.000000 -0.636364
v 2.680984 -1.000000 -0.454545
v 2.680984 -1.000000 -0.272727
v 2.680984 -1.000000 -0.090909
v 2.680984 -1.000000 0.090909
v 2.680984 -1.000000 0.272727
v 2.680984 -1.000000 0.454545
v 2.680984 -1.000000 0.636364
v 2.680984 -1.000000 0.818182
v -3.276759 -0.818182 0.818182
v -3.276759 -0.818182 0.636364
v -3.276759 -0.818182 0.454545
v -3.276759 -0.818182 0.272727
v -3.276759 -0.818182 0.090909
v -3.276759 -0.818182 -0.090909
v -3.276759 -0.818182 -0.272727
v -3.276759 -0.818182 -0.454545
v -3.276759 -0.818182 -0.636364
v -3.276759 -0.818182 -0.818182
v -3.276759 -0.636364 0.818182
v -3.276759 -0.636364 0.636364
v -3.276759 -0.636364 0.454545
v -3.276759 -0.636364 0.272727
v -3.276759 -0.636364 0.090909
v -3.276759 -0.636364 -0.090909
v -3.276759 -0.636364 -0.272727
v -3.276759 -0.636364 -0.454545
v -3.276759 -0.636364 -0.636364
v -3.276759 -0.636364 -0.818182
v -3.276759 -0.454545 0.818182
v -3.276759 -0.454545 0.636364
v -3.276759 -0.454545 0.454545
v -3.276759 -0.454545 0.272727
v -3.276759 -0.454545 0.090909
v -3.276759 -0.454545 -0.090909
v -3.276759 -0.454545 -0.272727
v -3.276759 -0.454545 -0.454545
v -3.276759 -0.454545 -0.636364
v -3.276759 -0.454545 -0.818182
v -3.276759 -0.272727 0.818182
v -3.276759 -0.272727 0.636364
v -3.276759 -0.272727 0.454545
v -3.276759 -0.272727 0.272727
v -3.276759 -0.272727 0.090909
v -3.276759 -0.272727 -0.090909
v -3.276759 -0.272727 -0.272727
v -3.276759 -0.272727 -0.454545
v -3.276759 -0.272727 -0.636364
v -3.276759 -0.272727 -0.818182
v -3.276759 -0.090909 0.818182
v -3.276759 -0.090909 0.636364
v -3.276759 -0.090909 0.454545
v -3.276759 -0.090909 0.272727
v -3.276759 -0.090909 0.090909
v -3.276759 -0.090909 -0.090909
v -3.276759 -0.090909 -0.272727
v -3.276759 -0.090909 -0.454545
v -3.276759 -0.090909 -0.636364
v -3.276759 -0.090909 -0.818182
v -3.276759 0.090909 0.818182
v -3.276759 0.090909 0.636364
v -3.276759 0.090909 0.454545
v -3.276759 0.090909 0.272727
v -3.276759 0.090909 0.090909
v -3.276759 0.090909 -0.090909
v -3.276759 0.090909 -0.272727
v -3.276759 0.090909 -0.454545
v -3.276759 0.090909 -0.636364
v -3.276759 0.090909 -0.818182
v -3.276759 0.272727 0.818182
v -3.276759 0.272727 0.636364
v -3.276759 0.272727 0.454545
v -3.276759 0.272727 0.272727
v -3.276759 0.272727 0.090909
v -3.276759 0.272727 -0.090909
v -3.276759 0.272727 -0.272727
v -3.276759 0.272727 -0.454545
v -3.276759 0.272727 -0.636364
v -3.276759 0.272727 -0.818182
v -3.276759 0.454545 0.818182
v -3.276759 0.454545 0.636364
v -3.276759 0.454545 0.454545
v -3.276759 0.454545 0.272727
v -3.276759 0.454545 0.090909
v -3.276759 0.454545 -0.090909
v -3.276759 0.454545 -0.272727
v -3.276759 0.454545 -0.454545
v -3.276759 0.454545 -0.636364
v -3.276759 0.454545 -0.818182
v -3.276759 0.636364 0.818182
v -3.276759 0.636364 0.636364
v -3.276759 0.636364 0.454545
v -3.276759 0.636364 0.272727
v -3.276759 0.636364 0.090909
v -3.276759 0.636364 -0.090909
v -3.276759 0.636364 -0.272727
v -3.276759 0.636364 -0.454545
v -3.276759 0.636364 -0.636364
v -3.276759 0.636364 -0.818182
v -3.276759 0.818182 0.818182
v -3.276759 0.818182 0.636364
v -3.276759 0.818182 0.454545
v -3.276759 0.818182 0.272727
v -3.276759 0.818182 0.090909
v -3.276759 0.818182 -0.090909
v -3.276759 0.818182 -0.272727
v -3.276759 0.818182 -0.454545
v -3.276759 0.818182 -0.636364
v -3.276759 0.818182 -0.818182
v 2.680984 -0.818182 1.000000
v 2.085210 -0.818182 1.000000
v 1.489436 -0.818182 1.000000
v 0.893661 -0.818182 1.000000
v 0.297887 -0.818182 1.000000
v -0.297887 -0.818182 1.000000
v -0.893662 -0.818182 1.000000
v -1.489436 -0.818182 1.000000
v -2.085210 -0.818182 1.000000
v -2.680984 -0.818182 1.000000
v 2.680984 -0.636364 1.000000
v 2.085210 -0.636364 1.000000
v 1.489436 -0.636364 1.000000
v 0.893661 -0.636364 1.000000
v 0.297887 -0.636364 1.000000
v -0.297887 -0.636364 1.000000
v -0.893662 -0.636364 1.000000
v -1.489436 -0.636364 1.000000
v -2.085210 -0.636364 1.000000
v -2.680984 -0.636364 1.000000
v 2.680984 -0.454545 1.000000
v 2.085210 -0.454545 1.000000
v 1.489436 -0.454545 1.000000
v 0.893661 -0.454545 1.000000
v 0.297887 -0.454545 1.000000
v -0.297887 -0.454545 1.000000
v -0.893662 -0.454545 1.000000
v -1.489436 -0.454545 1.000000
v -2.085210 -0.454545 1.000000
v -2.680984 -0.454545 1.000000
v 2.680984 -0.272727 1.000000
v 2.085210 -0.272727 1.000000
v 1.489436 -0.272727 1.000000
v 0.893661 -0.272727 1.000000
v 0.297887 -0.272727 1.000000
v -0.297887 -0.272727 1.000000
v -0.893662 -0.272727 1.000000
v -1.489436 -0.272727 1.000000
v -2.085210 -0.272727 1.000000
v -2.680984 -0.272727 1.000000
v 2.680984 -0.090909 1.000000
v 2.085210 -0.090909 1.000000
v 1.489436 -0.090909 1.000000
v 0.893661 -0.090909 1.000000
v 0.297887 -0.090909 1.000000
v -0.297887 -0.090909 1.000000
v -0.893662 -0.090909 1.000000
v -1.489436 -0.090909 1.000000
v -2.085210 -0.090909 1.000000
v -2.680984 -0.090909 1.000000
v 2.680984 0.090909 1.000000
v 2.085210 0.090909 1.000000
v 1.489436 0.090909 1.000000
v 0.893661 0.090909 1.000000
v 0.297887 0.090909 1.000000
v -0.297887 0.090909 1.000000
v -0.893662 0.090909 1.000000
v -1.489436 0.090909 1.000000
v -2.085210 0.090909 1.000000
v -2.680984 0.090909 1.000000
v 2.680984 0.272727 1.000000
v 2.085210 0.272727 1.000000
v 1.489436 0.272727 1.000000
v 0.893661 0.272727 1.000000
v 0.297887 0.272727 1.000000
v -0.297887 0.272727 1.000000
v -0.893662 0.272727 1.000000
v -1.489436 0.272727 1.000000
v -2.085210 0.272727 1.000000
v -2.680984 0.272727 1.000000
v 2.680984 0.454545 1.000000
v 2.085210 0.454545 1.000000
v 1.489436 0.454545 1.000000
v 0.893661 0.454545 1.000000
v 0.297887 0.454545 1.000000
v -0.297887 0.454545 1.000000
v -0.893662 0.454545 1.000000
v -1.489436 0.454545 1.000000
v -2.085210 0.454545 1.000000
v -2.680984 0.454545 1.000000
v 2.680984 0.636364 1.000000
v 2.085210 0.636364 1.000000
v 1.489436 0.636364 1.000000
v 0.893661 0.636364 1.000000
v 0.297887 0.636364 1.000000
v -0.297887 0.636364 1.000000
v -0.893662 0.636364 1.000000
v -1.489436 0.636364 1.000000
v -2.085210 0.636364 1.000000
v -2.680984 0.636364 1.000000
v 2.680984 0.818182 1.000000
v 2.085210 0.818182 1.000000
v 1.489436 0.818182 1.000000
v 0.893661 0.818182 1.000000
v 0.297887 0.818182 1.000000
v -0.297887 0.818182 1.000000
v -0.893662 0.818182 1.000000
v -1.489436 0.818182 1.000000
v -2.085210 0.818182 1.000000
v -2.680984 0.818182 1.000000
v 2.680984 1.000000 -0.818182
v 2.680984 1.000000 -0.636364
v 2.680984 1.000000 -0.454545
v 2.680984 1.000000 -0.272727
v 2.680984 1.000000 -0.090909
v 2.680984 1.000000 0.090909
v 2.680984 1.000000 0.272727
v 2.680984 1.000000 0.454545
v 2.680984 1.000000 0.636364
v 2.680984 1.000000 0.818182
v 2.085210 1.000000 -0.818182
v 2.085210 1.000000 -0.636364
v 2.085210 1.000000 -0.454545
v 2.085210 1.000000 -0.272727
v 2.085210 1.000000 -0.090909
v 2.085210 1.000000 0.090909
v 2.085210 1.000000 0.272727
v 2.085210 1.000000 0.454545
v 2.085210 1.000000 0.636364
v 2.085210 1.000000 0.818182
v 1.489436 1.000000 -0.818182
v 1.489436 1.000000 -0.636364
v 1.489436 1.000000 -0.454545
v 1.489436 1.000000 -0.272727
v 1.489436 1.000000 -0.090909
v 1.489436 1.000000 0.090909
v 1.489436 1.000000 0.272727
v 1.489436 1.000000 0.454545
v 1.489436 1.000000 0.636364
v 1.489436 1.000000 0.818182
v 0.893662 1.000000 -0.818182
v 0.893662 1.000000 -0.636364
v 0.893662 1.000000 -0.454545
v 0.893662 1.000000 -0.272727
v 0.893662 1.000000 -0.090909
v 0.893661 1.000000 0.090909
v 0.893661 1.000000 0.272727
v 0.893661 1.000000 0.454545
v 0.893661 1.000000 0.636364
v 0.893661 1.000000 0.818182
v 0.297887 1.000000 -0.818182
v 0.297887 1.000000 -0.636364
v 0.297887 1.000000 -0.454545
v 0.297887 1.000000 -0.272727
v 0.297887 1.000000 -0.090909
v 0.297887 1.000000 0.090909
v 0.297887 1.000000 0.272727
v 0.297887 1.000000 0.454545
v 0.297887 1.000000 0.636364
v 0.297887 1.000000 0.818182
v -0.297887 1.000000 -0.818182
v -0.297887 1.000000 -0.636364
v -0.297887 1.000000 -0.454545
v -0.297887 1.000000 -0.272727
v -0.297887 1.000000 -0.090909
v -0.297887 1.000000 0.090909
v -0.297887 1.000000 0.272727
v -0.297887 1.000000 0.454545
v -0.297887 1.000000 0.636364
v -0.297887 1.000000 0.818182
v -0.893661 1.000000 -0.818182
v -0.893661 1.000000 -0.636364
v -0.893661 1.000000 -0.454545
v -0.893661 1.000000 -0.272727
v -0.893661 1.000000 -0.090909
v -0.893661 1.000000 0.090909
v -0.893662 1.000000 0.272727
v -0.893662 1.000000 0.454545
v -0.893662 1.000000 0.636364
v -0.893662 1.000000 0.818182
v -1.489436 1.000000 -0.818182
v -1.489436 1.000000 -0.636364
v -1.489436 1.000000 -0.454545
v -1.489436 1.000000 -0.272727
v -1.489436 1.000000 -0.090909
v -1.489436 1.000000 0.090909
v -1.489436 1.000000 0.272727
v -1.489436 1.000000 0.454545
v -1.489436 1.000000 0.636364
v -1.489436 1.000000 0.818182
v -2.085210 1.000000 -0.818182
v -2.085210 1.000000 -0.636364
v -2.085210 1.000000 -0.454545
v -2.085210 1.000000 -0.272727
v -2.085210 1.000000 -0.090909
v -2.085210 1.000000 0.090909
v -2.085210 1.000000 0.272727
v -2.085210 1.000000 0.454545
v -2.085210 1.000000 0.636364
v -2.085210 1.000000 0.818182
v -2.680984 1.000000 -0.818182
v -2.680984 1.000000 -0.636364
v -2.680984 1.000000 -0.454545
v -2.680984 1.000000 -0.272727
v -2.680984 1.000000 -0.090909
v -2.680984 1.000000 0.090909
v -2.680984 1.000000 0.272727
v -2.680984 1.000000 0.454545
v -2.680984 1.000000 0.636364
v -2.680984 1.000000 0.818182
vn -0.0000 1.0000 -0.0000
vn -0.0000 -0.0000 1.0000
vn -1.0000 -0.0000 -0.0000
vn -0.0000 -1.0000 -0.0000
vn 1.0000 -0.0000 -0.0000
vn -0.0000 -0.0000 -1.0000
vt 0.852273 0.727273
vt 0.875000 0.727273
vt 0.875000 0.750000
vt 0.852273 0.750000
vt 0.602273 0.977273
vt 0.625000 0.977273
vt 0.625000 1.000000
vt 0.602273 1.000000
vt 0.602273 0.227273
vt 0.625000 0.227273
vt 0.625000 0.250000
vt 0.602273 0.250000
vt 0.352273 0.727273
vt 0.375000 0.727273
vt 0.375000 0.750000
vt 0.352273 0.750000
vt 0.602273 0.727273
vt 0.625000 0.727273
vt 0.625000 0.750000
vt 0.602273 0.750000
vt 0.602273 0.477273
vt 0.625000 0.477273
vt 0.625000 0.500000
vt 0.602273 0.500000
vt 0.375000 0.477273
vt 0.397727 0.477273
vt 0.397727 0.500000
vt 0.375000 0.500000
vt 0.420455 0.477273
vt 0.420455 0.500000
vt 0.443182 0.477273
vt 0.443182 0.500000
vt 0.465909 0.477273
vt 0.465909 0.500000
vt 0.488636 0.477273
vt 0.488636 0.500000
vt 0.511364 0.477273
vt 0.511364 0.500000
vt 0.534091 0.477273
vt 0.534091 0.500000
vt 0.556818 0.477273
vt 0.556818 0.500000
vt 0.579545 0.477273
vt 0.579545 0.500000
vt 0.375000 0.250000
vt 0.397727 0.250000
vt 0.397727 0.272727
vt 0.375000 0.272727
vt 0.397727 0.295455
vt 0.375000 0.295455
vt 0.397727 0.318182
vt 0.375000 0.318182
vt 0.397727 0.340909
vt 0.375000 0.340909
vt 0.397727 0.363636
vt 0.375000 0.363636
vt 0.397727 0.386364
vt 0.375000 0.386364
vt 0.397727 0.409091
vt 0.375000 0.409091
vt 0.397727 0.431818
vt 0.375000 0.431818
vt 0.397727 0.454545
vt 0.375000 0.454545
vt 0.420455 0.250000
vt 0.420455 0.272727
vt 0.420455 0.295455
vt 0.420455 0.318182
vt 0.420455 0.340909
vt 0.420455 0.363636
vt 0.420455 0.386364
vt 0.420455 0.409091
vt 0.420455 0.431818
vt 0.420455 0.454545
vt 0.443182 0.250000
vt 0.443182 0.272727
vt 0.443182 0.295455
vt 0.443182 0.318182
vt 0.443182 0.340909
vt 0.443182 0.363636
vt 0.443182 0.386364
vt 0.443182 0.409091
vt 0.443182 0.431818
vt 0.443182 0.454545
vt 0.465909 0.250000
vt 0.465909 0.272727
vt 0.465909 0.295455
vt 0.465909 0.318182
vt 0.465909 0.340909
vt 0.465909 0.363636
vt 0.465909 0.386364
vt 0.465909 0.409091
vt 0.465909 0.431818
vt 0.465909 0.454545
vt 0.488636 0.250000
vt 0.488636 0.272727
vt 0.488636 0.295455
vt 0.488636 0.318182
vt 0.488636 0.340909
vt 0.488636 0.363636
vt 0.488636 0.386364
vt 0.488636 0.409091
vt 0.488636 0.431818
vt 0.488636 0.454545
vt 0.511364 0.250000
vt 0.511364 0.272727
vt 0.511364 0.295455
vt 0.511364 0.318182
vt 0.511364 0.340909
vt 0.511364 0.363636
vt 0.511364 0.386364
vt 0.511364 0.409091
vt 0.511364 0.431818
vt 0.511364 0.454545
vt 0.534091 0.250000
vt 0.534091 0.272727
vt 0.534091 0.295455
vt 0.534091 0.318182
vt 0.534091 0.340909
vt 0.534091 0.363636
vt 0.534091 0.386364
vt 0.534091 0.409091
vt 0.534091 0.431818
vt 0.534091 0.454545
vt 0.556818 0.250000
vt 0.556818 0.272727
vt 0.556818 0.295455
vt 0.556818 0.318182
vt 0.556818 0.340909
vt 0.556818 0.363636
vt 0.556818 0.386364
vt 0.556818 0.409091
vt 0.556818 0.431818
vt 0.556818 0.454545
vt 0.579545 0.250000
vt 0.579545 0.272727
vt 0.579545 0.295455
vt 0.579545 0.318182
vt 0.579545 0.340909
vt 0.579545 0.363636
vt 0.579545 0.386364
vt 0.579545 0.409091
vt 0.579545 0.431818
vt 0.579545 0.454545
vt 0.602273 0.272727
vt 0.602273 0.295455
vt 0.602273 0.318182
vt 0.602273 0.340909
vt 0.602273 0.363636
vt 0.602273 0.386364
vt 0.602273 0.409091
vt 0.602273 0.431818
vt 0.602273 0.454545
vt 0.625000 0.272727
vt 0.625000 0.295455
vt 0.625000 0.318182
vt 0.625000 0.340909
vt 0.625000 0.363636
vt 0.625000 0.386364
vt 0.625000 0.409091
vt 0.625000 0.431818
vt 0.625000 0.454545
vt 0.397727 0.727273
vt 0.397727 0.750000
vt 0.420455 0.727273
vt 0.420455 0.750000
vt 0.443182 0.727273
vt 0.443182 0.750000
vt 0.465909 0.727273
vt 0.465909 0.750000
vt 0.488636 0.727273
vt 0.488636 0.750000
vt 0.511364 0.727273
vt 0.511364 0.750000
vt 0.534091 0.727273
vt 0.534091 0.750000
vt 0.556818 0.727273
vt 0.556818 0.750000
vt 0.579545 0.727273
vt 0.579545 0.750000
vt 0.397727 0.522727
vt 0.375000 0.522727
vt 0.397727 0.545455
vt 0.375000 0.545455
vt 0.397727 0.568182
vt 0.375000 0.568182
vt 0.397727 0.590909
vt 0.375000 0.590909
vt 0.397727 0.613636
vt 0.375000 0.613636
vt 0.397727 0.636364
vt 0.375000 0.636364
vt 0.397727 0.659091
vt 0.375000 0.659091
vt 0.397727 0.681818
vt 0.375000 0.681818
vt 0.397727 0.704545
vt 0.375000 0.704545
vt 0.420455 0.522727
vt 0.420455 0.545455
vt 0.420455 0.568182
vt 0.420455 0.590909
vt 0.420455 0.613636
vt 0.420455 0.636364
vt 0.420455 0.659091
vt 0.420455 0.681818
vt 0.420455 0.704545
vt 0.443182 0.522727
vt 0.443182 0.545455
vt 0.443182 0.568182
vt 0.443182 0.590909
vt 0.443182 0.613636
vt 0.443182 0.636364
vt 0.443182 0.659091
vt 0.443182 0.681818
vt 0.443182 0.704545
vt 0.465909 0.522727
vt 0.465909 0.545455
vt 0.465909 0.568182
vt 0.465909 0.590909
vt 0.465909 0.613636
vt 0.465909 0.636364
vt 0.465909 0.659091
vt 0.465909 0.681818
vt 0.465909 0.704545
vt 0.488636 0.522727
vt 0.488636 0.545455
vt 0.488636 0.568182
vt 0.488636 0.590909
vt 0.488636 0.613636
vt 0.488636 0.636364
vt 0.488636 0.659091
vt 0.488636 0.681818
vt 0.488636 0.704545
vt 0.511364 0.522727
vt 0.511364 0.545455
vt 0.511364 0.568182
vt 0.511364 0.590909
vt 0.511364 0.613636
vt 0.511364 0.636364
vt 0.511364 0.659091
vt 0.511364 0.681818
vt 0.511364 0.704545
vt 0.534091 0.522727
vt 0.534091 0.545455
vt 0.534091 0.568182
vt 0.534091 0.590909
vt 0.534091 0.613636
vt 0.534091 0.636364
vt 0.534091 0.659091
vt 0.534091 0.681818
vt 0.534091 0.704545
vt 0.556818 0.522727
vt 0.556818 0.545455
vt 0.556818 0.568182
vt 0.556818 0.590909
vt 0.556818 0.613636
vt 0.556818 0.636364
vt 0.556818 0.659091
vt 0.556818 0.681818
vt 0.556818 0.704545
vt 0.579545 0.522727
vt 0.579545 0.545455
vt 0.579545 0.568182
vt 0.579545 0.590909
vt 0.579545 0.613636
vt 0.579545 0.636364
vt 0.579545 0.659091
vt 0.579545 0.681818
vt 0.579545 0.704545
vt 0.602273 0.522727
vt 0.602273 0.545455
vt 0.602273 0.568182
vt 0.602273 0.590909
vt 0.602273 0.613636
vt 0.602273 0.636364
vt 0.602273 0.659091
vt 0.602273 0.681818
vt 0.602273 0.704545
vt 0.625000 0.522727
vt 0.625000 0.545455
vt 0.625000 0.568182
vt 0.625000 0.590909
vt 0.625000 0.613636
vt 0.625000 0.636364
vt 0.625000 0.659091
vt 0.625000 0.681818
vt 0.625000 0.704545
vt 0.125000 0.727273
vt 0.147727 0.727273
vt 0.147727 0.750000
vt 0.125000 0.750000
vt 0.170455 0.727273
vt 0.170455 0.750000
vt 0.193182 0.727273
vt 0.193182 0.750000
vt 0.215909 0.727273
vt 0.215909 0.750000
vt 0.238636 0.727273
vt 0.238636 0.750000
vt 0.261364 0.727273
vt 0.261364 0.750000
vt 0.284091 0.727273
vt 0.284091 0.750000
vt 0.306818 0.727273
vt 0.306818 0.750000
vt 0.329545 0.727273
vt 0.329545 0.750000
vt 0.125000 0.500000
vt 0.147727 0.500000
vt 0.147727 0.522727
vt 0.125000 0.522727
vt 0.147727 0.545455
vt 0.125000 0.545455
vt 0.147727 0.568182
vt 0.125000 0.568182
vt 0.147727 0.590909
vt 0.125000 0.590909
vt 0.147727 0.613636
vt 0.125000 0.613636
vt 0.147727 0.636364
vt 0.125000 0.636364
vt 0.147727 0.659091
vt 0.125000 0.659091
vt 0.147727 0.681818
vt 0.125000 0.681818
vt 0.147727 0.704545
vt 0.125000 0.704545
vt 0.170455 0.500000
vt 0.170455 0.522727
vt 0.170455 0.545455
vt 0.170455 0.568182
vt 0.170455 0.590909
vt 0.170455 0.613636
vt 0.170455 0.636364
vt 0.170455 0.659091
vt 0.170455 0.681818
vt 0.170455 0.704545
vt 0.193182 0.500000
vt 0.193182 0.522727
vt 0.193182 0.545455
vt 0.193182 0.568182
vt 0.193182 0.590909
vt 0.193182 0.613636
vt 0.193182 0.636364
vt 0.193182 0.659091
vt 0.193182 0.681818
vt 0.193182 0.704545
vt 0.215909 0.500000
vt 0.215909 0.522727
vt 0.215909 0.545455
vt 0.215909 0.568182
vt 0.215909 0.590909
vt 0.215909 0.613636
vt 0.215909 0.636364
vt 0.215909 0.659091
vt 0.215909 0.681818
vt 0.215909 0.704545
vt 0.238636 0.500000
vt 0.238636 0.522727
vt 0.238636 0.545455
vt 0.238636 0.568182
vt 0.238636 0.590909
vt 0.238636 0.613636
vt 0.238636 0.636364
vt 0.238636 0.659091
vt 0.238636 0.681818
vt 0.238636 0.704545
vt 0.261364 0.500000
vt 0.261364 0.522727
vt 0.261364 0.545455
vt 0.261364 0.568182
vt 0.261364 0.590909
vt 0.261364 0.613636
vt 0.261364 0.636364
vt 0.261364 0.659091
vt 0.261364 0.681818
vt 0.261364 0.704545
vt 0.284091 0.500000
vt 0.284091 0.522727
vt 0.284091 0.545455
vt 0.284091 0.568182
vt 0.284091 0.590909
vt 0.284091 0.613636
vt 0.284091 0.636364
vt 0.284091 0.659091
vt 0.284091 0.681818
vt 0.284091 0.704545
vt 0.306818 0.500000
vt 0.306818 0.522727
vt 0.306818 0.545455
vt 0.306818 0.568182
vt 0.306818 0.590909
vt 0.306818 0.613636
vt 0.306818 0.636364
vt 0.306818 0.659091
vt 0.306818 0.681818
vt 0.306818 0.704545
vt 0.329545 0.500000
vt 0.329545 0.522727
vt 0.329545 0.545455
vt 0.329545 0.568182
vt 0.329545 0.590909
vt 0.329545 0.613636
vt 0.329545 0.636364
vt 0.329545 0.659091
vt 0.329545 0.681818
vt 0.329545 0.704545
vt 0.352273 0.500000
vt 0.352273 0.522727
vt 0.352273 0.545455
vt 0.352273 0.568182
vt 0.352273 0.590909
vt 0.352273 0.613636
vt 0.352273 0.636364
vt 0.352273 0.659091
vt 0.352273 0.681818
vt 0.352273 0.704545
vt 0.375000 0.227273
vt 0.397727 0.227273
vt 0.420455 0.227273
vt 0.443182 0.227273
vt 0.465909 0.227273
vt 0.488636 0.227273
vt 0.511364 0.227273
vt 0.534091 0.227273
vt 0.556818 0.227273
vt 0.579545 0.227273
vt 0.375000 0.000000
vt 0.397727 0.000000
vt 0.397727 0.022727
vt 0.375000 0.022727
vt 0.397727 0.045455
vt 0.375000 0.045455
vt 0.397727 0.068182
vt 0.375000 0.068182
vt 0.397727 0.090909
vt 0.375000 0.090909
vt 0.397727 0.113636
vt 0.375000 0.113636
vt 0.397727 0.136364
vt 0.375000 0.136364
vt 0.397727 0.159091
vt 0.375000 0.159091
vt 0.397727 0.181818
vt 0.375000 0.181818
vt 0.397727 0.204545
vt 0.375000 0.204545
vt 0.420455 0.000000
vt 0.420455 0.022727
vt 0.420454 0.045455
vt 0.420454 0.068182
vt 0.420454 0.090909
vt 0.420455 0.113636
vt 0.420455 0.136364
vt 0.420455 0.159091
vt 0.420455 0.181818
vt 0.420455 0.204545
vt 0.443182 0.000000
vt 0.443182 0.022727
vt 0.443182 0.045455
vt 0.443182 0.068182
vt 0.443182 0.090909
vt 0.443182 0.113636
vt 0.443182 0.136364
vt 0.443182 0.159091
vt 0.443182 0.181818
vt 0.443182 0.204545
vt 0.465909 0.000000
vt 0.465909 0.022727
vt 0.465909 0.045455
vt 0.465909 0.068182
vt 0.465909 0.090909
vt 0.465909 0.113636
vt 0.465909 0.136364
vt 0.465909 0.159091
vt 0.465909 0.181818
vt 0.465909 0.204545
vt 0.488636 0.000000
vt 0.488636 0.022727
vt 0.488636 0.045455
vt 0.488636 0.068182
vt 0.488636 0.090909
vt 0.488636 0.113636
vt 0.488636 0.136364
vt 0.488636 0.159091
vt 0.488636 0.181818
vt 0.488636 0.204545
vt 0.511364 0.000000
vt 0.511364 0.022727
vt 0.511364 0.045455
vt 0.511364 0.068182
vt 0.511364 0.090909
vt 0.511364 0.113636
vt 0.511364 0.136364
vt 0.511364 0.159091
vt 0.511364 0.181818
vt 0.511364 0.204545
vt 0.534091 0.000000
vt 0.534091 0.022727
vt 0.534091 0.045455
vt 0.534091 0.068182
vt 0.534091 0.090909
vt 0.534091 0.113636
vt 0.534091 0.136364
vt 0.534091 0.159091
vt 0.534091 0.181818
vt 0.534091 0.204545
vt 0.556818 0.000000
vt 0.556818 0.022727
vt 0.556818 0.045455
vt 0.556818 0.068182
vt 0.556818 0.090909
vt 0.556818 0.113636
vt 0.556818 0.136364
vt 0.556818 0.159091
vt 0.556818 0.181818
vt 0.556818 0.204545
vt 0.579545 0.000000
vt 0.579545 0.022727
vt 0.579545 0.045455
vt 0.579545 0.068182
vt 0.579545 0.090909
vt 0.579545 0.113636
vt 0.579545 0.136364
vt 0.579545 0.159091
vt 0.579545 0.181818
vt 0.579545 0.204545
vt 0.602273 0.000000
vt 0.602273 0.022727
vt 0.602273 0.045455
vt 0.602273 0.068182
vt 0.602273 0.090909
vt 0.602273 0.113636
vt 0.602273 0.136364
vt 0.602273 0.159091
vt 0.602273 0.181818
vt 0.602273 0.204545
vt 0.625000 0.000000
vt 0.625000 0.022727
vt 0.625000 0.045455
vt 0.625000 0.068182
vt 0.625000 0.090909
vt 0.625000 0.113636
vt 0.625000 0.136364
vt 0.625000 0.159091
vt 0.625000 0.181818
vt 0.625000 0.204545
vt 0.375000 0.977273
vt 0.397727 0.977273
vt 0.397727 1.000000
vt 0.375000 1.000000
vt 0.420455 0.977273
vt 0.420455 1.000000
vt 0.443182 0.977273
vt 0.443182 1.000000
vt 0.465909 0.977273
vt 0.465909 1.000000
vt 0.488636 0.977273
vt 0.488636 1.000000
vt 0.511364 0.977273
vt 0.511364 1.000000
vt 0.534091 0.977273
vt 0.534091 1.000000
vt 0.556818 0.977273
vt 0.556818 1.000000
vt 0.579545 0.977273
vt 0.579545 1.000000
vt 0.397727 0.772727
vt 0.375000 0.772727
vt 0.397727 0.795455
vt 0.375000 0.795455
vt 0.397727 0.818182
vt 0.375000 0.818182
vt 0.397727 0.840909
vt 0.375000 0.840909
vt 0.397727 0.863636
vt 0.375000 0.863636
vt 0.397727 0.886364
vt 0.375000 0.886364
vt 0.397727 0.909091
vt 0.375000 0.909091
vt 0.397727 0.931818
vt 0.375000 0.931818
vt 0.397727 0.954545
vt 0.375000 0.954545
vt 0.420455 0.772727
vt 0.420455 0.795455
vt 0.420455 0.818182
vt 0.420455 0.840909
vt 0.420455 0.863636
vt 0.420455 0.886364
vt 0.420455 0.909091
vt 0.420455 0.931818
vt 0.420455 0.954545
vt 0.443182 0.772727
vt 0.443182 0.795455
vt 0.443182 0.818182
vt 0.443182 0.840909
vt 0.443182 0.863636
vt 0.443182 0.886364
vt 0.443182 0.909091
vt 0.443182 0.931818
vt 0.443182 0.954545
vt 0.465909 0.772727
vt 0.465909 0.795455
vt 0.465909 0.818182
vt 0.465909 0.840909
vt 0.465909 0.863636
vt 0.465909 0.886364
vt 0.465909 0.909091
vt 0.465909 0.931818
vt 0.465909 0.954545
vt 0.488636 0.772727
vt 0.488636 0.795455
vt 0.488636 0.818182
vt 0.488636 0.840909
vt 0.488636 0.863636
vt 0.488636 0.886364
vt 0.488636 0.909091
vt 0.488636 0.931818
vt 0.488636 0.954545
vt 0.511364 0.772727
vt 0.511364 0.795455
vt 0.511364 0.818182
vt 0.511364 0.840909
vt 0.511364 0.863636
vt 0.511364 0.886364
vt 0.511364 0.909091
vt 0.511364 0.931818
vt 0.511364 0.954545
vt 0.534091 0.772727
vt 0.534091 0.795455
vt 0.534091 0.818182
vt 0.534091 0.840909
vt 0.534091 0.863636
vt 0.534091 0.886364
vt 0.534091 0.909091
vt 0.534091 0.931818
vt 0.534091 0.954545
vt 0.556818 0.772727
vt 0.556818 0.795455
vt 0.556818 0.818182
vt 0.556818 0.840909
vt 0.556818 0.863636
vt 0.556818 0.886364
vt 0.556818 0.909091
vt 0.556818 0.931818
vt 0.556818 0.954545
vt 0.579545 0.772727
vt 0.579545 0.795455
vt 0.579545 0.818182
vt 0.579545 0.840909
vt 0.579545 0.863636
vt 0.579545 0.886364
vt 0.579545 0.909091
vt 0.579545 0.931818
vt 0.579545 0.954545
vt 0.602273 0.772727
vt 0.602273 0.795455
vt 0.602273 0.818182
vt 0.602273 0.840909
vt 0.602273 0.863636
vt 0.602273 0.886364
vt 0.602273 0.909091
vt 0.602273 0.931818
vt 0.602273 0.954545
vt 0.625000 0.772727
vt 0.625000 0.795455
vt 0.625000 0.818182
vt 0.625000 0.840909
vt 0.625000 0.863636
vt 0.625000 0.886364
vt 0.625000 0.909091
vt 0.625000 0.931818
vt 0.625000 0.954545
vt 0.647727 0.727273
vt 0.647727 0.750000
vt 0.670455 0.727273
vt 0.670455 0.750000
vt 0.693182 0.727273
vt 0.693182 0.750000
vt 0.715909 0.727273
vt 0.715909 0.750000
vt 0.738636 0.727273
vt 0.738636 0.750000
vt 0.761364 0.727273
vt 0.761364 0.750000
vt 0.784091 0.727273
vt 0.784091 0.750000
vt 0.806818 0.727273
vt 0.806818 0.750000
vt 0.829545 0.727273
vt 0.829545 0.750000
vt 0.647727 0.500000
vt 0.647727 0.522727
vt 0.647727 0.545455
vt 0.647727 0.568182
vt 0.647727 0.590909
vt 0.647727 0.613636
vt 0.647727 0.636364
vt 0.647727 0.659091
vt 0.647727 0.681818
vt 0.647727 0.704545
vt 0.670455 0.500000
vt 0.670455 0.522727
vt 0.670455 0.545455
vt 0.670455 0.568182
vt 0.670455 0.590909
vt 0.670455 0.613636
vt 0.670455 0.636364
vt 0.670455 0.659091
vt 0.670455 0.681818
vt 0.670455 0.704545
vt 0.693182 0.500000
vt 0.693182 0.522727
vt 0.693182 0.545455
vt 0.693182 0.568182
vt 0.693182 0.590909
vt 0.693182 0.613636
vt 0.693182 0.636364
vt 0.693182 0.659091
vt 0.693182 0.681818
vt 0.693182 0.704545
vt 0.715909 0.500000
vt 0.715909 0.522727
vt 0.715909 0.545455
vt 0.715909 0.568182
vt 0.715909 0.590909
vt 0.715909 0.613636
vt 0.715909 0.636364
vt 0.715909 0.659091
vt 0.715909 0.681818
vt 0.715909 0.704545
vt 0.738636 0.500000
vt 0.738636 0.522727
vt 0.738636 0.545455
vt 0.738636 0.568182
vt 0.738636 0.590909
vt 0.738636 0.613636
vt 0.738636 0.636364
vt 0.738636 0.659091
vt 0.738636 0.681818
vt 0.738636 0.704545
vt 0.761364 0.500000
vt 0.761364 0.522727
vt 0.761364 0.545455
vt 0.761364 0.568182
vt 0.761364 0.590909
vt 0.761364 0.613636
vt 0.761364 0.636364
vt 0.761364 0.659091
vt 0.761364 0.681818
vt 0.761364 0.704545
vt 0.784091 0.500000
vt 0.784091 0.522727
vt 0.784091 0.545455
vt 0.784091 0.568182
vt 0.784091 0.590909
vt 0.784091 0.613636
vt 0.784091 0.636364
vt 0.784091 0.659091
vt 0.784091 0.681818
vt 0.784091 0.704545
vt 0.806818 0.500000
vt 0.806818 0.522727
vt 0.806818 0.545455
vt 0.806818 0.568182
vt 0.806818 0.590909
vt 0.806818 0.613636
vt 0.806818 0.636364
vt 0.806818 0.659091
vt 0.806818 0.681818
vt 0.806818 0.704545
vt 0.829545 0.500000
vt 0.829545 0.522727
vt 0.829545 0.545455
vt 0.829545 0.568182
vt 0.829545 0.590909
vt 0.829545 0.613636
vt 0.829545 0.636364
vt 0.829545 0.659091
vt 0.829545 0.681818
vt 0.829545 0.704545
vt 0.852273 0.500000
vt 0.852273 0.522727
vt 0.852273 0.545455
vt 0.852273 0.568182
vt 0.852273 0.590909
vt 0.852273 0.613636
vt 0.852273 0.636364
vt 0.852273 0.659091
vt 0.852273 0.681818
vt 0.852273 0.704545
vt 0.875000 0.500000
vt 0.875000 0.522727
vt 0.875000 0.545455
vt 0.875000 0.568182
vt 0.875000 0.590909
vt 0.875000 0.613636
vt 0.875000 0.636364
vt 0.875000 0.659091
vt 0.875000 0.681818
vt 0.875000 0.704545
s 0
usemtl Material
f 728/1/1 99/2/1 7/3/1 78/4/1
f 628/5/2 78/6/2 7/7/2 48/8/2
f 528/9/3 108/10/3 5/11/3 59/12/3
f 428/13/4 119/14/4 4/15/4 98/16/4
f 328/17/5 88/18/5 3/19/5 49/20/5
f 228/21/6 118/22/6 1/23/6 29/24/6
f 19/25/6 138/26/6 38/27/6 2/28/6
f 138/26/6 148/29/6 37/30/6 38/27/6
f 148/29/6 158/31/6 36/32/6 37/30/6
f 158/31/6 168/33/6 35/34/6 36/32/6
f 168/33/6 178/35/6 34/36/6 35/34/6
f 178/35/6 188/37/6 33/38/6 34/36/6
f 188/37/6 198/39/6 32/40/6 33/38/6
f 198/39/6 208/41/6 31/42/6 32/40/6
f 208/41/6 218/43/6 30/44/6 31/42/6
f 218/43/6 228/21/6 29/24/6 30/44/6
f 6/45/6 68/46/6 129/47/6 28/48/6
f 28/48/6 129/47/6 130/49/6 27/50/6
f 27/50/6 130/49/6 131/51/6 26/52/6
f 26/52/6 131/51/6 132/53/6 25/54/6
f 25/54/6 132/53/6 133/55/6 24/56/6
f 24/56/6 133/55/6 134/57/6 23/58/6
f 23/58/6 134/57/6 135/59/6 22/60/6
f 22/60/6 135/59/6 136/61/6 21/62/6
f 21/62/6 136/61/6 137/63/6 20/64/6
f 20/64/6 137/63/6 138/26/6 19/25/6
f 68/46/6 67/65/6 139/66/6 129/47/6
f 129/47/6 139/66/6 140/67/6 130/49/6
f 130/49/6 140/67/6 141/68/6 131/51/6
f 131/51/6 141/68/6 142/69/6 132/53/6
f 132/53/6 142/69/6 143/70/6 133/55/6
f 133/55/6 143/70/6 144/71/6 134/57/6
f 134/57/6 144/71/6 145/72/6 135/59/6
f 135/59/6 145/72/6 146/73/6 136/61/6
f 136/61/6 146/73/6 147/74/6 137/63/6
f 137/63/6 147/74/6 148/29/6 138/26/6
f 67/65/6 66/75/6 149/76/6 139/66/6
f 139/66/6 149/76/6 150/77/6 140/67/6
f 140/67/6 150/77/6 151/78/6 141/68/6
f 141/68/6 151/78/6 152/79/6 142/69/6
f 142/69/6 152/79/6 153/80/6 143/70/6
f 143/70/6 153/80/6 154/81/6 144/71/6
f 144/71/6 154/81/6 155/82/6 145/72/6
f 145/72/6 155/82/6 156/83/6 146/73/6
f 146/73/6 156/83/6 157/84/6 147/74/6
f 147/74/6 157/84/6 158/31/6 148/29/6
f 66/75/6 65/85/6 159/86/6 149/76/6
f 149/76/6 159/86/6 160/87/6 150/77/6
f 150/77/6 160/87/6 161/88/6 151/78/6
f 151/78/6 161/88/6 162/89/6 152/79/6
f 152/79/6 162/89/6 163/90/6 153/80/6
f 153/80/6 163/90/6 164/91/6 154/81/6
f 154/81/6 164/91/6 165/92/6 155/82/6
f 155/82/6 165/92/6 166/93/6 156/83/6
f 156/83/6 166/93/6 167/94/6 157/84/6
f 157/84/6 167/94/6 168/33/6 158/31/6
f 65/85/6 64/95/6 169/96/6 159/86/6
f 159/86/6 169/96/6 170/97/6 160/87/6
f 160/87/6 170/97/6 171/98/6 161/88/6
f 161/88/6 171/98/6 172/99/6 162/89/6
f 162/89/6 172/99/6 173/100/6 163/90/6
f 163/90/6 173/100/6 174/101/6 164/91/6
f 164/91/6 174/101/6 175/102/6 165/92/6
f 165/92/6 175/102/6 176/103/6 166/93/6
f 166/93/6 176/103/6 177/104/6 167/94/6
f 167/94/6 177/104/6 178/35/6 168/33/6
f 64/95/6 63/105/6 179/106/6 169/96/6
f 169/96/6 179/106/6 180/107/6 170/97/6
f 170/97/6 180/107/6 181/108/6 171/98/6
f 171/98/6 181/108/6 182/109/6 172/99/6
f 172/99/6 182/109/6 183/110/6 173/100/6
f 173/100/6 183/110/6 184/111/6 174/101/6
f 174/101/6 184/111/6 185/112/6 175/102/6
f 175/102/6 185/112/6 186/113/6 176/103/6
f 176/103/6 186/113/6 187/114/6 177/104/6
f 177/104/6 187/114/6 188/37/6 178/35/6
f 63/105/6 62/115/6 189/116/6 179/106/6
f 179/106/6 189/116/6 190/117/6 180/107/6
f 180/107/6 190/117/6 191/118/6 181/108/6
f 181/108/6 191/118/6 192/119/6 182/109/6
f 182/109/6 192/119/6 193/120/6 183/110/6
f 183/110/6 193/120/6 194/121/6 184/111/6
f 184/111/6 194/121/6 195/122/6 185/112/6
f 185/112/6 195/122/6 196/123/6 186/113/6
f 186/113/6 196/123/6 197/124/6 187/114/6
f 187/114/6 197/124/6 198/39/6 188/37/6
f 62/115/6 61/125/6 199/126/6 189/116/6
f 189/116/6 199/126/6 200/127/6 190/117/6
f 190/117/6 200/127/6 201/128/6 191/118/6
f 191/118/6 201/128/6 202/129/6 192/119/6
f 192/119/6 202/129/6 203/130/6 193/120/6
f 193/120/6 203/130/6 204/131/6 194/121/6
f 194/121/6 204/131/6 205/132/6 195/122/6
f 195/122/6 205/132/6 206/133/6 196/123/6
f 196/123/6 206/133/6 207/134/6 197/124/6
f 197/124/6 207/134/6 208/41/6 198/39/6
f 61/125/6 60/135/6 209/136/6 199/126/6
f 199/126/6 209/136/6 210/137/6 200/127/6
f 200/127/6 210/137/6 211/138/6 201/128/6
f 201/128/6 211/138/6 212/139/6 202/129/6
f 202/129/6 212/139/6 213/140/6 203/130/6
f 203/130/6 213/140/6 214/141/6 204/131/6
f 204/131/6 214/141/6 215/142/6 205/132/6
f 205/132/6 215/142/6 216/143/6 206/133/6
f 206/133/6 216/143/6 217/144/6 207/134/6
f 207/134/6 217/144/6 218/43/6 208/41/6
f 60/135/6 59/12/6 219/145/6 209/136/6
f 209/136/6 219/145/6 220/146/6 210/137/6
f 210/137/6 220/146/6 221/147/6 211/138/6
f 211/138/6 221/147/6 222/148/6 212/139/6
f 212/139/6 222/148/6 223/149/6 213/140/6
f 213/140/6 223/149/6 224/150/6 214/141/6
f 214/141/6 224/150/6 225/151/6 215/142/6
f 215/142/6 225/151/6 226/152/6 216/143/6
f 216/143/6 226/152/6 227/153/6 217/144/6
f 217/144/6 227/153/6 228/21/6 218/43/6
f 59/12/6 5/11/6 109/154/6 219/145/6
f 219/145/6 109/154/6 110/155/6 220/146/6
f 220/146/6 110/155/6 111/156/6 221/147/6
f 221/147/6 111/156/6 112/157/6 222/148/6
f 222/148/6 112/157/6 113/158/6 223/149/6
f 223/149/6 113/158/6 114/159/6 224/150/6
f 224/150/6 114/159/6 115/160/6 225/151/6
f 225/151/6 115/160/6 116/161/6 226/152/6
f 226/152/6 116/161/6 117/162/6 227/153/6
f 227/153/6 117/162/6 118/22/6 228/21/6
f 119/14/5 238/163/5 58/164/5 4/15/5
f 238/163/5 248/165/5 57/166/5 58/164/5
f 248/165/5 258/167/5 56/168/5 57/166/5
f 258/167/5 268/169/5 55/170/5 56/168/5
f 268/169/5 278/171/5 54/172/5 55/170/5
f 278/171/5 288/173/5 53/174/5 54/172/5
f 288/173/5 298/175/5 52/176/5 53/174/5
f 298/175/5 308/177/5 51/178/5 52/176/5
f 308/177/5 318/179/5 50/180/5 51/178/5
f 318/179/5 328/17/5 49/20/5 50/180/5
f 2/28/5 38/27/5 229/181/5 128/182/5
f 128/182/5 229/181/5 230/183/5 127/184/5
f 127/184/5 230/183/5 231/185/5 126/186/5
f 126/186/5 231/185/5 232/187/5 125/188/5
f 125/188/5 232/187/5 233/189/5 124/190/5
f 124/190/5 233/189/5 234/191/5 123/192/5
f 123/192/5 234/191/5 235/193/5 122/194/5
f 122/194/5 235/193/5 236/195/5 121/196/5
f 121/196/5 236/195/5 237/197/5 120/198/5
f 120/198/5 237/197/5 238/163/5 119/14/5
f 38/27/5 37/30/5 239/199/5 229/181/5
f 229/181/5 239/199/5 240/200/5 230/183/5
f 230/183/5 240/200/5 241/201/5 231/185/5
f 231/185/5 241/201/5 242/202/5 232/187/5
f 232/187/5 242/202/5 243/203/5 233/189/5
f 233/189/5 243/203/5 244/204/5 234/191/5
f 234/191/5 244/204/5 245/205/5 235/193/5
f 235/193/5 245/205/5 246/206/5 236/195/5
f 236/195/5 246/206/5 247/207/5 237/197/5
f 237/197/5 247/207/5 248/165/5 238/163/5
f 37/30/5 36/32/5 249/208/5 239/199/5
f 239/199/5 249/208/5 250/209/5 240/200/5
f 240/200/5 250/209/5 251/210/5 241/201/5
f 241/201/5 251/210/5 252/211/5 242/202/5
f 242/202/5 252/211/5 253/212/5 243/203/5
f 243/203/5 253/212/5 254/213/5 244/204/5
f 244/204/5 254/213/5 255/214/5 245/205/5
f 245/205/5 255/214/5 256/215/5 246/206/5
f 246/206/5 256/215/5 257/216/5 247/207/5
f 247/207/5 257/216/5 258/167/5 248/165/5
f 36/32/5 35/34/5 259/217/5 249/208/5
f 249/208/5 259/217/5 260/218/5 250/209/5
f 250/209/5 260/218/5 261/219/5 251/210/5
f 251/210/5 261/219/5 262/220/5 252/211/5
f 252/211/5 262/220/5 263/221/5 253/212/5
f 253/212/5 263/221/5 264/222/5 254/213/5
f 254/213/5 264/222/5 265/223/5 255/214/5
f 255/214/5 265/223/5 266/224/5 256/215/5
f 256/215/5 266/224/5 267/225/5 257/216/5
f 257/216/5 267/225/5 268/169/5 258/167/5
f 35/34/5 34/36/5 269/226/5 259/217/5
f 259/217/5 269/226/5 270/227/5 260/218/5
f 260/218/5 270/227/5 271/228/5 261/219/5
f 261/219/5 271/228/5 272/229/5 262/220/5
f 262/220/5 272/229/5 273/230/5 263/221/5
f 263/221/5 273/230/5 274/231/5 264/222/5
f 264/222/5 274/231/5 275/232/5 265/223/5
f 265/223/5 275/232/5 276/233/5 266/224/5
f 266/224/5 276/233/5 277/234/5 267/225/5
f 267/225/5 277/234/5 278/171/5 268/169/5
f 34/36/5 33/38/5 279/235/5 269/226/5
f 269/226/5 279/235/5 280/236/5 270/227/5
f 270/227/5 280/236/5 281/237/5 271/228/5
f 271/228/5 281/237/5 282/238/5 272/229/5
f 272/229/5 282/238/5 283/239/5 273/230/5
f 273/230/5 283/239/5 284/240/5 274/231/5
f 274/231/5 284/240/5 285/241/5 275/232/5
f 275/232/5 285/241/5 286/242/5 276/233/5
f 276/233/5 286/242/5 287/243/5 277/234/5
f 277/234/5 287/243/5 288/173/5 278/171/5
f 33/38/5 32/40/5 289/244/5 279/235/5
f 279/235/5 289/244/5 290/245/5 280/236/5
f 280/236/5 290/245/5 291/246/5 281/237/5
f 281/237/5 291/246/5 292/247/5 282/238/5
f 282/238/5 292/247/5 293/248/5 283/239/5
f 283/239/5 293/248/5 294/249/5 284/240/5
f 284/240/5 294/249/5 295/250/5 285/241/5
f 285/241/5 295/250/5 296/251/5 286/242/5
f 286/242/5 296/251/5 297/252/5 287/243/5
f 287/243/5 297/252/5 298/175/5 288/173/5
f 32/40/5 31/42/5 299/253/5 289/244/5
f 289/244/5 299/253/5 300/254/5 290/245/5
f 290/245/5 300/254/5 301/255/5 291/246/5
f 291/246/5 301/255/5 302/256/5 292/247/5
f 292/247/5 302/256/5 303/257/5 293/248/5
f 293/248/5 303/257/5 304/258/5 294/249/5
f 294/249/5 304/258/5 305/259/5 295/250/5
f 295/250/5 305/259/5 306/260/5 296/251/5
f 296/251/5 306/260/5 307/261/5 297/252/5
f 297/252/5 307/261/5 308/177/5 298/175/5
f 31/42/5 30/44/5 309/262/5 299/253/5
f 299/253/5 309/262/5 310/263/5 300/254/5
f 300/254/5 310/263/5 311/264/5 301/255/5
f 301/255/5 311/264/5 312/265/5 302/256/5
f 302/256/5 312/265/5 313/266/5 303/257/5
f 303/257/5 313/266/5 314/267/5 304/258/5
f 304/258/5 314/267/5 315/268/5 305/259/5
f 305/259/5 315/268/5 316/269/5 306/260/5
f 306/260/5 316/269/5 317/270/5 307/261/5
f 307/261/5 317/270/5 318/179/5 308/177/5
f 30/44/5 29/24/5 319/271/5 309/262/5
f 309/262/5 319/271/5 320/272/5 310/263/5
f 310/263/5 320/272/5 321/273/5 311/264/5
f 311/264/5 321/273/5 322/274/5 312/265/5
f 312/265/5 322/274/5 323/275/5 313/266/5
f 313/266/5 323/275/5 324/276/5 314/267/5
f 314/267/5 324/276/5 325/277/5 315/268/5
f 315/268/5 325/277/5 326/278/5 316/269/5
f 316/269/5 326/278/5 327/279/5 317/270/5
f 317/270/5 327/279/5 328/17/5 318/179/5
f 29/24/5 1/23/5 79/280/5 319/271/5
f 319/271/5 79/280/5 80/281/5 320/272/5
f 320/272/5 80/281/5 81/282/5 321/273/5
f 321/273/5 81/282/5 82/283/5 322/274/5
f 322/274/5 82/283/5 83/284/5 323/275/5
f 323/275/5 83/284/5 84/285/5 324/276/5
f 324/276/5 84/285/5 85/286/5 325/277/5
f 325/277/5 85/286/5 86/287/5 326/278/5
f 326/278/5 86/287/5 87/288/5 327/279/5
f 327/279/5 87/288/5 88/18/5 328/17/5
f 18/289/4 338/290/4 89/291/4 8/292/4
f 338/290/4 348/293/4 90/294/4 89/291/4
f 348/293/4 358/295/4 91/296/4 90/294/4
f 358/295/4 368/297/4 92/298/4 91/296/4
f 368/297/4 378/299/4 93/300/4 92/298/4
f 378/299/4 388/301/4 94/302/4 93/300/4
f 388/301/4 398/303/4 95/304/4 94/302/4
f 398/303/4 408/305/4 96/306/4 95/304/4
f 408/305/4 418/307/4 97/308/4 96/306/4
f 418/307/4 428/13/4 98/16/4 97/308/4
f 6/309/4 28/310/4 329/311/4 9/312/4
f 9/312/4 329/311/4 330/313/4 10/314/4
f 10/314/4 330/313/4 331/315/4 11/316/4
f 11/316/4 331/315/4 332/317/4 12/318/4
f 12/318/4 332/317/4 333/319/4 13/320/4
f 13/320/4 333/319/4 334/321/4 14/322/4
f 14/322/4 334/321/4 335/323/4 15/324/4
f 15/324/4 335/323/4 336/325/4 16/326/4
f 16/326/4 336/325/4 337/327/4 17/328/4
f 17/328/4 337/327/4 338/290/4 18/289/4
f 28/310/4 27/329/4 339/330/4 329/311/4
f 329/311/4 339/330/4 340/331/4 330/313/4
f 330/313/4 340/331/4 341/332/4 331/315/4
f 331/315/4 341/332/4 342/333/4 332/317/4
f 332/317/4 342/333/4 343/334/4 333/319/4
f 333/319/4 343/334/4 344/335/4 334/321/4
f 334/321/4 344/335/4 345/336/4 335/323/4
f 335/323/4 345/336/4 346/337/4 336/325/4
f 336/325/4 346/337/4 347/338/4 337/327/4
f 337/327/4 347/338/4 348/293/4 338/290/4
f 27/329/4 26/339/4 349/340/4 339/330/4
f 339/330/4 349/340/4 350/341/4 340/331/4
f 340/331/4 350/341/4 351/342/4 341/332/4
f 341/332/4 351/342/4 352/343/4 342/333/4
f 342/333/4 352/343/4 353/344/4 343/334/4
f 343/334/4 353/344/4 354/345/4 344/335/4
f 344/335/4 354/345/4 355/346/4 345/336/4
f 345/336/4 355/346/4 356/347/4 346/337/4
f 346/337/4 356/347/4 357/348/4 347/338/4
f 347/338/4 357/348/4 358/295/4 348/293/4
f 26/339/4 25/349/4 359/350/4 349/340/4
f 349/340/4 359/350/4 360/351/4 350/341/4
f 350/341/4 360/351/4 361/352/4 351/342/4
f 351/342/4 361/352/4 362/353/4 352/343/4
f 352/343/4 362/353/4 363/354/4 353/344/4
f 353/344/4 363/354/4 364/355/4 354/345/4
f 354/345/4 364/355/4 365/356/4 355/346/4
f 355/346/4 365/356/4 366/357/4 356/347/4
f 356/347/4 366/357/4 367/358/4 357/348/4
f 357/348/4 367/358/4 368/297/4 358/295/4
f 25/349/4 24/359/4 369/360/4 359/350/4
f 359/350/4 369/360/4 370/361/4 360/351/4
f 360/351/4 370/361/4 371/362/4 361/352/4
f 361/352/4 371/362/4 372/363/4 362/353/4
f 362/353/4 372/363/4 373/364/4 363/354/4
f 363/354/4 373/364/4 374/365/4 364/355/4
f 364/355/4 374/365/4 375/366/4 365/356/4
f 365/356/4 375/366/4 376/367/4 366/357/4
f 366/357/4 376/367/4 377/368/4 367/358/4
f 367/358/4 377/368/4 378/299/4 368/297/4
f 24/359/4 23/369/4 379/370/4 369/360/4
f 369/360/4 379/370/4 380/371/4 370/361/4
f 370/361/4 380/371/4 381/372/4 371/362/4
f 371/362/4 381/372/4 382/373/4 372/363/4
f 372/363/4 382/373/4 383/374/4 373/364/4
f 373/364/4 383/374/4 384/375/4 374/365/4
f 374/365/4 384/375/4 385/376/4 375/366/4
f 375/366/4 385/376/4 386/377/4 376/367/4
f 376/367/4 386/377/4 387/378/4 377/368/4
f 377/368/4 387/378/4 388/301/4 378/299/4
f 23/369/4 22/379/4 389/380/4 379/370/4
f 379/370/4 389/380/4 390/381/4 380/371/4
f 380/371/4 390/381/4 391/382/4 381/372/4
f 381/372/4 391/382/4 392/383/4 382/373/4
f 382/373/4 392/383/4 393/384/4 383/374/4
f 383/374/4 393/384/4 394/385/4 384/375/4
f 384/375/4 394/385/4 395/386/4 385/376/4
f 385/376/4 395/386/4 396/387/4 386/377/4
f 386/377/4 396/387/4 397/388/4 387/378/4
f 387/378/4 397/388/4 398/303/4 388/301/4
f 22/379/4 21/389/4 399/390/4 389/380/4
f 389/380/4 399/390/4 400/391/4 390/381/4
f 390/381/4 400/391/4 401/392/4 391/382/4
f 391/382/4 401/392/4 402/393/4 392/383/4
f 392/383/4 402/393/4 403/394/4 393/384/4
f 393/384/4 403/394/4 404/395/4 394/385/4
f 394/385/4 404/395/4 405/396/4 395/386/4
f 395/386/4 405/396/4 406/397/4 396/387/4
f 396/387/4 406/397/4 407/398/4 397/388/4
f 397/388/4 407/398/4 408/305/4 398/303/4
f 21/389/4 20/399/4 409/400/4 399/390/4
f 399/390/4 409/400/4 410/401/4 400/391/4
f 400/391/4 410/401/4 411/402/4 401/392/4
f 401/392/4 411/402/4 412/403/4 402/393/4
f 402/393/4 412/403/4 413/404/4 403/394/4
f 403/394/4 413/404/4 414/405/4 404/395/4
f 404/395/4 414/405/4 415/406/4 405/396/4
f 405/396/4 415/406/4 416/407/4 406/397/4
f 406/397/4 416/407/4 417/408/4 407/398/4
f 407/398/4 417/408/4 418/307/4 408/305/4
f 20/399/4 19/409/4 419/410/4 409/400/4
f 409/400/4 419/410/4 420/411/4 410/401/4
f 410/401/4 420/411/4 421/412/4 411/402/4
f 411/402/4 421/412/4 422/413/4 412/403/4
f 412/403/4 422/413/4 423/414/4 413/404/4
f 413/404/4 423/414/4 424/415/4 414/405/4
f 414/405/4 424/415/4 425/416/4 415/406/4
f 415/406/4 425/416/4 426/417/4 416/407/4
f 416/407/4 426/417/4 427/418/4 417/408/4
f 417/408/4 427/418/4 428/13/4 418/307/4
f 19/409/4 2/28/4 128/182/4 419/410/4
f 419/410/4 128/182/4 127/184/4 420/411/4
f 420/411/4 127/184/4 126/186/4 421/412/4
f 421/412/4 126/186/4 125/188/4 422/413/4
f 422/413/4 125/188/4 124/190/4 423/414/4
f 423/414/4 124/190/4 123/192/4 424/415/4
f 424/415/4 123/192/4 122/194/4 425/416/4
f 425/416/4 122/194/4 121/196/4 426/417/4
f 426/417/4 121/196/4 120/198/4 427/418/4
f 427/418/4 120/198/4 119/14/4 428/13/4
f 9/419/3 438/420/3 68/46/3 6/45/3
f 438/420/3 448/421/3 67/65/3 68/46/3
f 448/421/3 458/422/3 66/75/3 67/65/3
f 458/422/3 468/423/3 65/85/3 66/75/3
f 468/423/3 478/424/3 64/95/3 65/85/3
f 478/424/3 488/425/3 63/105/3 64/95/3
f 488/425/3 498/426/3 62/115/3 63/105/3
f 498/426/3 508/427/3 61/125/3 62/115/3
f 508/427/3 518/428/3 60/135/3 61/125/3
f 518/428/3 528/9/3 59/12/3 60/135/3
f 8/429/3 39/430/3 429/431/3 18/432/3
f 18/432/3 429/431/3 430/433/3 17/434/3
f 17/434/3 430/433/3 431/435/3 16/436/3
f 16/436/3 431/435/3 432/437/3 15/438/3
f 15/438/3 432/437/3 433/439/3 14/440/3
f 14/440/3 433/439/3 434/441/3 13/442/3
f 13/442/3 434/441/3 435/443/3 12/444/3
f 12/444/3 435/443/3 436/445/3 11/446/3
f 11/446/3 436/445/3 437/447/3 10/448/3
f 10/448/3 437/447/3 438/420/3 9/419/3
f 39/430/3 40/449/3 439/450/3 429/431/3
f 429/431/3 439/450/3 440/451/3 430/433/3
f 430/433/3 440/451/3 441/452/3 431/435/3
f 431/435/3 441/452/3 442/453/3 432/437/3
f 432/437/3 442/453/3 443/454/3 433/439/3
f 433/439/3 443/454/3 444/455/3 434/441/3
f 434/441/3 444/455/3 445/456/3 435/443/3
f 435/443/3 445/456/3 446/457/3 436/445/3
f 436/445/3 446/457/3 447/458/3 437/447/3
f 437/447/3 447/458/3 448/421/3 438/420/3
f 40/449/3 41/459/3 449/460/3 439/450/3
f 439/450/3 449/460/3 450/461/3 440/451/3
f 440/451/3 450/461/3 451/462/3 441/452/3
f 441/452/3 451/462/3 452/463/3 442/453/3
f 442/453/3 452/463/3 453/464/3 443/454/3
f 443/454/3 453/464/3 454/465/3 444/455/3
f 444/455/3 454/465/3 455/466/3 445/456/3
f 445/456/3 455/466/3 456/467/3 446/457/3
f 446/457/3 456/467/3 457/468/3 447/458/3
f 447/458/3 457/468/3 458/422/3 448/421/3
f 41/459/3 42/469/3 459/470/3 449/460/3
f 449/460/3 459/470/3 460/471/3 450/461/3
f 450/461/3 460/471/3 461/472/3 451/462/3
f 451/462/3 461/472/3 462/473/3 452/463/3
f 452/463/3 462/473/3 463/474/3 453/464/3
f 453/464/3 463/474/3 464/475/3 454/465/3
f 454/465/3 464/475/3 465/476/3 455/466/3
f 455/466/3 465/476/3 466/477/3 456/467/3
f 456/467/3 466/477/3 467/478/3 457/468/3
f 457/468/3 467/478/3 468/423/3 458/422/3
f 42/469/3 43/479/3 469/480/3 459/470/3
f 459/470/3 469/480/3 470/481/3 460/471/3
f 460/471/3 470/481/3 471/482/3 461/472/3
f 461/472/3 471/482/3 472/483/3 462/473/3
f 462/473/3 472/483/3 473/484/3 463/474/3
f 463/474/3 473/484/3 474/485/3 464/475/3
f 464/475/3 474/485/3 475/486/3 465/476/3
f 465/476/3 475/486/3 476/487/3 466/477/3
f 466/477/3 476/487/3 477/488/3 467/478/3
f 467/478/3 477/488/3 478/424/3 468/423/3
f 43/479/3 44/489/3 479/490/3 469/480/3
f 469/480/3 479/490/3 480/491/3 470/481/3
f 470/481/3 480/491/3 481/492/3 471/482/3
f 471/482/3 481/492/3 482/493/3 472/483/3
f 472/483/3 482/493/3 483/494/3 473/484/3
f 473/484/3 483/494/3 484/495/3 474/485/3
f 474/485/3 484/495/3 485/496/3 475/486/3
f 475/486/3 485/496/3 486/497/3 476/487/3
f 476/487/3 486/497/3 487/498/3 477/488/3
f 477/488/3 487/498/3 488/425/3 478/424/3
f 44/489/3 45/499/3 489/500/3 479/490/3
f 479/490/3 489/500/3 490/501/3 480/491/3
f 480/491/3 490/501/3 491/502/3 481/492/3
f 481/492/3 491/502/3 492/503/3 482/493/3
f 482/493/3 492/503/3 493/504/3 483/494/3
f 483/494/3 493/504/3 494/505/3 484/495/3
f 484/495/3 494/505/3 495/506/3 485/496/3
f 485/496/3 495/506/3 496/507/3 486/497/3
f 486/497/3 496/507/3 497/508/3 487/498/3
f 487/498/3 497/508/3 498/426/3 488/425/3
f 45/499/3 46/509/3 499/510/3 489/500/3
f 489/500/3 499/510/3 500/511/3 490/501/3
f 490/501/3 500/511/3 501/512/3 491/502/3
f 491/502/3 501/512/3 502/513/3 492/503/3
f 492/503/3 502/513/3 503/514/3 493/504/3
f 493/504/3 503/514/3 504/515/3 494/505/3
f 494/505/3 504/515/3 505/516/3 495/506/3
f 495/506/3 505/516/3 506/517/3 496/507/3
f 496/507/3 506/517/3 507/518/3 497/508/3
f 497/508/3 507/518/3 508/427/3 498/426/3
f 46/509/3 47/519/3 509/520/3 499/510/3
f 499/510/3 509/520/3 510/521/3 500/511/3
f 500/511/3 510/521/3 511/522/3 501/512/3
f 501/512/3 511/522/3 512/523/3 502/513/3
f 502/513/3 512/523/3 513/524/3 503/514/3
f 503/514/3 513/524/3 514/525/3 504/515/3
f 504/515/3 514/525/3 515/526/3 505/516/3
f 505/516/3 515/526/3 516/527/3 506/517/3
f 506/517/3 516/527/3 517/528/3 507/518/3
f 507/518/3 517/528/3 518/428/3 508/427/3
f 47/519/3 48/529/3 519/530/3 509/520/3
f 509/520/3 519/530/3 520/531/3 510/521/3
f 510/521/3 520/531/3 521/532/3 511/522/3
f 511/522/3 521/532/3 522/533/3 512/523/3
f 512/523/3 522/533/3 523/534/3 513/524/3
f 513/524/3 523/534/3 524/535/3 514/525/3
f 514/525/3 524/535/3 525/536/3 515/526/3
f 515/526/3 525/536/3 526/537/3 516/527/3
f 516/527/3 526/537/3 527/538/3 517/528/3
f 517/528/3 527/538/3 528/9/3 518/428/3
f 48/529/3 7/539/3 99/540/3 519/530/3
f 519/530/3 99/540/3 100/541/3 520/531/3
f 520/531/3 100/541/3 101/542/3 521/532/3
f 521/532/3 101/542/3 102/543/3 522/533/3
f 522/533/3 102/543/3 103/544/3 523/534/3
f 523/534/3 103/544/3 104/545/3 524/535/3
f 524/535/3 104/545/3 105/546/3 525/536/3
f 525/536/3 105/546/3 106/547/3 526/537/3
f 526/537/3 106/547/3 107/548/3 527/538/3
f 527/538/3 107/548/3 108/10/3 528/9/3
f 89/549/2 538/550/2 39/551/2 8/552/2
f 538/550/2 548/553/2 40/554/2 39/551/2
f 548/553/2 558/555/2 41/556/2 40/554/2
f 558/555/2 568/557/2 42/558/2 41/556/2
f 568/557/2 578/559/2 43/560/2 42/558/2
f 578/559/2 588/561/2 44/562/2 43/560/2
f 588/561/2 598/563/2 45/564/2 44/562/2
f 598/563/2 608/565/2 46/566/2 45/564/2
f 608/565/2 618/567/2 47/568/2 46/566/2
f 618/567/2 628/5/2 48/8/2 47/568/2
f 4/15/2 58/164/2 529/569/2 98/570/2
f 98/570/2 529/569/2 530/571/2 97/572/2
f 97/572/2 530/571/2 531/573/2 96/574/2
f 96/574/2 531/573/2 532/575/2 95/576/2
f 95/576/2 532/575/2 533/577/2 94/578/2
f 94/578/2 533/577/2 534/579/2 93/580/2
f 93/580/2 534/579/2 535/581/2 92/582/2
f 92/582/2 535/581/2 536/583/2 91/584/2
f 91/584/2 536/583/2 537/585/2 90/586/2
f 90/586/2 537/585/2 538/550/2 89/549/2
f 58/164/2 57/166/2 539/587/2 529/569/2
f 529/569/2 539/587/2 540/588/2 530/571/2
f 530/571/2 540/588/2 541/589/2 531/573/2
f 531/573/2 541/589/2 542/590/2 532/575/2
f 532/575/2 542/590/2 543/591/2 533/577/2
f 533/577/2 543/591/2 544/592/2 534/579/2
f 534/579/2 544/592/2 545/593/2 535/581/2
f 535/581/2 545/593/2 546/594/2 536/583/2
f 536/583/2 546/594/2 547/595/2 537/585/2
f 537/585/2 547/595/2 548/553/2 538/550/2
f 57/166/2 56/168/2 549/596/2 539/587/2
f 539/587/2 549/596/2 550/597/2 540/588/2
f 540/588/2 550/597/2 551/598/2 541/589/2
f 541/589/2 551/598/2 552/599/2 542/590/2
f 542/590/2 552/599/2 553/600/2 543/591/2
f 543/591/2 553/600/2 554/601/2 544/592/2
f 544/592/2 554/601/2 555/602/2 545/593/2
f 545/593/2 555/602/2 556/603/2 546/594/2
f 546/594/2 556/603/2 557/604/2 547/595/2
f 547/595/2 557/604/2 558/555/2 548/553/2
f 56/168/2 55/170/2 559/605/2 549/596/2
f 549/596/2 559/605/2 560/606/2 550/597/2
f 550/597/2 560/606/2 561/607/2 551/598/2
f 551/598/2 561/607/2 562/608/2 552/599/2
f 552/599/2 562/608/2 563/609/2 553/600/2
f 553/600/2 563/609/2 564/610/2 554/601/2
f 554/601/2 564/610/2 565/611/2 555/602/2
f 555/602/2 565/611/2 566/612/2 556/603/2
f 556/603/2 566/612/2 567/613/2 557/604/2
f 557/604/2 567/613/2 568/557/2 558/555/2
f 55/170/2 54/172/2 569/614/2 559/605/2
f 559/605/2 569/614/2 570/615/2 560/606/2
f 560/606/2 570/615/2 571/616/2 561/607/2
f 561/607/2 571/616/2 572/617/2 562/608/2
f 562/608/2 572/617/2 573/618/2 563/609/2
f 563/609/2 573/618/2 574/619/2 564/610/2
f 564/610/2 574/619/2 575/620/2 565/611/2
f 565/611/2 575/620/2 576/621/2 566/612/2
f 566/612/2 576/621/2 577/622/2 567/613/2
f 567/613/2 577/622/2 578/559/2 568/557/2
f 54/172/2 53/174/2 579/623/2 569/614/2
f 569/614/2 579/623/2 580/624/2 570/615/2
f 570/615/2 580/624/2 581/625/2 571/616/2
f 571/616/2 581/625/2 582/626/2 572/617/2
f 572/617/2 582/626/2 583/627/2 573/618/2
f 573/618/2 583/627/2 584/628/2 574/619/2
f 574/619/2 584/628/2 585/629/2 575/620/2
f 575/620/2 585/629/2 586/630/2 576/621/2
f 576/621/2 586/630/2 587/631/2 577/622/2
f 577/622/2 587/631/2 588/561/2 578/559/2
f 53/174/2 52/176/2 589/632/2 579/623/2
f 579/623/2 589/632/2 590/633/2 580/624/2
f 580/624/2 590/633/2 591/634/2 581/625/2
f 581/625/2 591/634/2 592/635/2 582/626/2
f 582/626/2 592/635/2 593/636/2 583/627/2
f 583/627/2 593/636/2 594/637/2 584/628/2
f 584/628/2 594/637/2 595/638/2 585/629/2
f 585/629/2 595/638/2 596/639/2 586/630/2
f 586/630/2 596/639/2 597/640/2 587/631/2
f 587/631/2 597/640/2 598/563/2 588/561/2
f 52/176/2 51/178/2 599/641/2 589/632/2
f 589/632/2 599/641/2 600/642/2 590/633/2
f 590/633/2 600/642/2 601/643/2 591/634/2
f 591/634/2 601/643/2 602/644/2 592/635/2
f 592/635/2 602/644/2 603/645/2 593/636/2
f 593/636/2 603/645/2 604/646/2 594/637/2
f 594/637/2 604/646/2 605/647/2 595/638/2
f 595/638/2 605/647/2 606/648/2 596/639/2
f 596/639/2 606/648/2 607/649/2 597/640/2
f 597/640/2 607/649/2 608/565/2 598/563/2
f 51/178/2 50/180/2 609/650/2 599/641/2
f 599/641/2 609/650/2 610/651/2 600/642/2
f 600/642/2 610/651/2 611/652/2 601/643/2
f 601/643/2 611/652/2 612/653/2 602/644/2
f 602/644/2 612/653/2 613/654/2 603/645/2
f 603/645/2 613/654/2 614/655/2 604/646/2
f 604/646/2 614/655/2 615/656/2 605/647/2
f 605/647/2 615/656/2 616/657/2 606/648/2
f 606/648/2 616/657/2 617/658/2 607/649/2
f 607/649/2 617/658/2 618/567/2 608/565/2
f 50/180/2 49/20/2 619/659/2 609/650/2
f 609/650/2 619/659/2 620/660/2 610/651/2
f 610/651/2 620/660/2 621/661/2 611/652/2
f 611/652/2 621/661/2 622/662/2 612/653/2
f 612/653/2 622/662/2 623/663/2 613/654/2
f 613/654/2 623/663/2 624/664/2 614/655/2
f 614/655/2 624/664/2 625/665/2 615/656/2
f 615/656/2 625/665/2 626/666/2 616/657/2
f 616/657/2 626/666/2 627/667/2 617/658/2
f 617/658/2 627/667/2 628/5/2 618/567/2
f 49/20/2 3/19/2 69/668/2 619/659/2
f 619/659/2 69/668/2 70/669/2 620/660/2
f 620/660/2 70/669/2 71/670/2 621/661/2
f 621/661/2 71/670/2 72/671/2 622/662/2
f 622/662/2 72/671/2 73/672/2 623/663/2
f 623/663/2 73/672/2 74/673/2 624/664/2
f 624/664/2 74/673/2 75/674/2 625/665/2
f 625/665/2 75/674/2 76/675/2 626/666/2
f 626/666/2 76/675/2 77/676/2 627/667/2
f 627/667/2 77/676/2 78/6/2 628/5/2
f 88/18/1 638/677/1 69/678/1 3/19/1
f 638/677/1 648/679/1 70/680/1 69/678/1
f 648/679/1 658/681/1 71/682/1 70/680/1
f 658/681/1 668/683/1 72/684/1 71/682/1
f 668/683/1 678/685/1 73/686/1 72/684/1
f 678/685/1 688/687/1 74/688/1 73/686/1
f 688/687/1 698/689/1 75/690/1 74/688/1
f 698/689/1 708/691/1 76/692/1 75/690/1
f 708/691/1 718/693/1 77/694/1 76/692/1
f 718/693/1 728/1/1 78/4/1 77/694/1
f 1/23/1 118/695/1 629/696/1 79/280/1
f 79/280/1 629/696/1 630/697/1 80/281/1
f 80/281/1 630/697/1 631/698/1 81/282/1
f 81/282/1 631/698/1 632/699/1 82/283/1
f 82/283/1 632/699/1 633/700/1 83/284/1
f 83/284/1 633/700/1 634/701/1 84/285/1
f 84/285/1 634/701/1 635/702/1 85/286/1
f 85/286/1 635/702/1 636/703/1 86/287/1
f 86/287/1 636/703/1 637/704/1 87/288/1
f 87/288/1 637/704/1 638/677/1 88/18/1
f 118/695/1 117/705/1 639/706/1 629/696/1
f 629/696/1 639/706/1 640/707/1 630/697/1
f 630/697/1 640/707/1 641/708/1 631/698/1
f 631/698/1 641/708/1 642/709/1 632/699/1
f 632/699/1 642/709/1 643/710/1 633/700/1
f 633/700/1 643/710/1 644/711/1 634/701/1
f 634/701/1 644/711/1 645/712/1 635/702/1
f 635/702/1 645/712/1 646/713/1 636/703/1
f 636/703/1 646/713/1 647/714/1 637/704/1
f 637/704/1 647/714/1 648/679/1 638/677/1
f 117/705/1 116/715/1 649/716/1 639/706/1
f 639/706/1 649/716/1 650/717/1 640/707/1
f 640/707/1 650/717/1 651/718/1 641/708/1
f 641/708/1 651/718/1 652/719/1 642/709/1
f 642/709/1 652/719/1 653/720/1 643/710/1
f 643/710/1 653/720/1 654/721/1 644/711/1
f 644/711/1 654/721/1 655/722/1 645/712/1
f 645/712/1 655/722/1 656/723/1 646/713/1
f 646/713/1 656/723/1 657/724/1 647/714/1
f 647/714/1 657/724/1 658/681/1 648/679/1
f 116/715/1 115/725/1 659/726/1 649/716/1
f 649/716/1 659/726/1 660/727/1 650/717/1
f 650/717/1 660/727/1 661/728/1 651/718/1
f 651/718/1 661/728/1 662/729/1 652/719/1
f 652/719/1 662/729/1 663/730/1 653/720/1
f 653/720/1 663/730/1 664/731/1 654/721/1
f 654/721/1 664/731/1 665/732/1 655/722/1
f 655/722/1 665/732/1 666/733/1 656/723/1
f 656/723/1 666/733/1 667/734/1 657/724/1
f 657/724/1 667/734/1 668/683/1 658/681/1
f 115/725/1 114/735/1 669/736/1 659/726/1
f 659/726/1 669/736/1 670/737/1 660/727/1
f 660/727/1 670/737/1 671/738/1 661/728/1
f 661/728/1 671/738/1 672/739/1 662/729/1
f 662/729/1 672/739/1 673/740/1 663/730/1
f 663/730/1 673/740/1 674/741/1 664/731/1
f 664/731/1 674/741/1 675/742/1 665/732/1
f 665/732/1 675/742/1 676/743/1 666/733/1
f 666/733/1 676/743/1 677/744/1 667/734/1
f 667/734/1 677/744/1 678/685/1 668/683/1
f 114/735/1 113/745/1 679/746/1 669/736/1
f 669/736/1 679/746/1 680/747/1 670/737/1
f 670/737/1 680/747/1 681/748/1 671/738/1
f 671/738/1 681/748/1 682/749/1 672/739/1
f 672/739/1 682/749/1 683/750/1 673/740/1
f 673/740/1 683/750/1 684/751/1 674/741/1
f 674/741/1 684/751/1 685/752/1 675/742/1
f 675/742/1 685/752/1 686/753/1 676/743/1
f 676/743/1 686/753/1 687/754/1 677/744/1
f 677/744/1 687/754/1 688/687/1 678/685/1
f 113/745/1 112/755/1 689/756/1 679/746/1
f 679/746/1 689/756/1 690/757/1 680/747/1
f 680/747/1 690/757/1 691/758/1 681/748/1
f 681/748/1 691/758/1 692/759/1 682/749/1
f 682/749/1 692/759/1 693/760/1 683/750/1
f 683/750/1 693/760/1 694/761/1 684/751/1
f 684/751/1 694/761/1 695/762/1 685/752/1
f 685/752/1 695/762/1 696/763/1 686/753/1
f 686/753/1 696/763/1 697/764/1 687/754/1
f 687/754/1 697/764/1 698/689/1 688/687/1
f 112/755/1 111/765/1 699/766/1 689/756/1
f 689/756/1 699/766/1 700/767/1 690/757/1
f 690/757/1 700/767/1 701/768/1 691/758/1
f 691/758/1 701/768/1 702/769/1 692/759/1
f 692/759/1 702/769/1 703/770/1 693/760/1
f 693/760/1 703/770/1 704/771/1 694/761/1
f 694/761/1 704/771/1 705/772/1 695/762/1
f 695/762/1 705/772/1 706/773/1 696/763/1
f 696/763/1 706/773/1 707/774/1 697/764/1
f 697/764/1 707/774/1 708/691/1 698/689/1
f 111/765/1 110/775/1 709/776/1 699/766/1
f 699/766/1 709/776/1 710/777/1 700/767/1
f 700/767/1 710/777/1 711/778/1 701/768/1
f 701/768/1 711/778/1 712/779/1 702/769/1
f 702/769/1 712/779/1 713/780/1 703/770/1
f 703/770/1 713/780/1 714/781/1 704/771/1
f 704/771/1 714/781/1 715/782/1 705/772/1
f 705/772/1 715/782/1 716/783/1 706/773/1
f 706/773/1 716/783/1 717/784/1 707/774/1
f 707/774/1 717/784/1 718/693/1 708/691/1
f 110/775/1 109/785/1 719/786/1 709/776/1
f 709/776/1 719/786/1 720/787/1 710/777/1
f 710/777/1 720/787/1 721/788/1 711/778/1
f 711/778/1 721/788/1 722/789/1 712/779/1
f 712/779/1 722/789/1 723/790/1 713/780/1
f 713/780/1 723/790/1 724/791/1 714/781/1
f 714/781/1 724/791/1 725/792/1 715/782/1
f 715/782/1 725/792/1 726/793/1 716/783/1
f 716/783/1 726/793/1 727/794/1 717/784/1
f 717/784/1 727/794/1 728/1/1 718/693/1
f 109/785/1 5/795/1 108/796/1 719/786/1
f 719/786/1 108/796/1 107/797/1 720/787/1
f 720/787/1 107/797/1 106/798/1 721/788/1
f 721/788/1 106/798/1 105/799/1 722/789/1
f 722/789/1 105/799/1 104/800/1 723/790/1
f 723/790/1 104/800/1 103/801/1 724/791/1
f 724/791/1 103/801/1 102/802/1 725/792/1
f 725/792/1 102/802/1 101/803/1 726/793/1
f 726/793/1 101/803/1 100/804/1 727/794/1
f 727/794/1 100/804/1 99/2/1 728/1/1
